<svg version="1.0" xmlns="http://www.w3.org/2000/svg"
 width="50px" height="70px" viewBox="200 30 25 400"
 preserveAspectRatio="xMidYMid meet">

<g transform="translate(0.000000,500.000000) scale(0.100000,-0.100000)"
fill="currentColor" stroke="none">
<path d="M2845 4159 c8 -57 -15 -155 -52 -218 -35 -60 -164 -193 -278 -287
-94 -77 -204 -200 -249 -277 -51 -87 -69 -163 -69 -282 0 -128 20 -194 101
-337 l47 -83 7 90 c26 306 112 490 351 745 112 119 171 201 210 293 27 61 31
84 31 157 1 78 -2 90 -33 147 -18 34 -42 70 -53 80 -20 18 -20 17 -13 -28z"/>
<path d="M2973 3701 c-18 -56 -75 -150 -168 -276 -132 -180 -161 -225 -203
-330 -80 -198 -102 -318 -102 -567 l0 -179 55 108 c58 114 78 138 262 316 79
77 109 114 137 170 39 76 69 198 64 255 l-3 34 -114 -88 c-162 -127 -231 -176
-231 -167 0 13 66 103 125 169 30 34 93 90 140 125 l85 63 0 118 c0 113 -16
265 -29 280 -3 4 -12 -10 -18 -31z"/>
<path d="M2051 2900 c-24 -113 -8 -238 45 -343 15 -28 59 -99 99 -157 40 -58
93 -139 119 -180 l48 -75 -5 100 c-7 140 -39 237 -123 362 -81 123 -144 246
-151 301 -3 23 -9 42 -13 42 -5 0 -13 -23 -19 -50z"/>
<path d="M3000 2868 c0 -27 -94 -137 -190 -223 -146 -131 -220 -237 -257 -368
-17 -62 -29 -290 -19 -370 l7 -57 47 0 47 0 19 53 c28 78 81 152 184 255 51
51 108 117 127 146 78 122 102 276 70 453 -17 95 -34 150 -35 111z"/>
<path d="M1988 2435 c-7 -56 9 -163 32 -210 11 -22 65 -91 120 -154 56 -62
117 -137 136 -167 23 -36 41 -54 54 -54 17 0 19 5 14 28 -25 102 -76 192 -186
328 -79 97 -135 182 -152 232 l-13 37 -5 -40z"/>
<path d="M2308 1759 c-21 -12 -24 -49 -6 -67 8 -8 64 -12 188 -12 181 0 200 4
200 41 0 41 -36 49 -205 49 -90 0 -168 -5 -177 -11z"/>
<path d="M2355 1573 c4 -10 22 -61 40 -113 18 -52 41 -113 50 -135 9 -22 24
-56 32 -75 l14 -35 50 130 c28 72 56 148 64 170 7 22 16 48 20 58 7 16 -4 17
-135 17 -131 0 -142 -1 -135 -17z"/>
<path d="M2135 1169 c-186 -12 -317 -30 -322 -46 -8 -23 190 -51 467 -64 365
-17 892 21 877 64 -5 15 -46 23 -187 37 -160 15 -654 21 -835 9z"/>
</g>
</svg>
