<?xml version="1.0" standalone="no"?>
<!DOCTYPE svg PUBLIC "-//W3C//DTD SVG 20010904//EN"
 "http://www.w3.org/TR/2001/REC-SVG-20010904/DTD/svg10.dtd">
<svg version="1.0" xmlns="http://www.w3.org/2000/svg" viewBox="150 60 300.000000 360.000000"
 preserveAspectRatio="xMidYMid meet">

<g transform="translate(0.000000,500.000000) scale(0.100000,-0.100000)"
fill="currentColor" stroke="none">
<path d="M3685 4315 c-17 -9 -59 -55 -95 -105 -36 -49 -72 -92 -81 -95 -9 -3
-29 -25 -45 -48 -16 -23 -58 -83 -95 -133 -75 -102 -89 -126 -89 -149 0 -8
-30 -57 -67 -108 -128 -178 -347 -483 -398 -557 -29 -41 -88 -123 -131 -182
-44 -58 -99 -135 -124 -169 -98 -138 -170 -235 -192 -262 -21 -25 -130 -77
-227 -108 -67 -21 -466 -181 -475 -190 -24 -22 34 -3 249 82 259 103 395 152
401 146 2 -2 -18 -33 -44 -68 -27 -35 -60 -83 -75 -105 -14 -23 -55 -77 -91
-120 -66 -78 -67 -81 -130 -274 -35 -107 -81 -239 -102 -292 -37 -92 -41 -99
-79 -114 -50 -20 -137 -29 -159 -17 -15 8 -12 15 20 56 42 54 47 92 14 119
-47 38 -131 47 -235 24 -66 -14 -224 -78 -268 -109 -53 -37 -18 -29 75 16 131
63 181 79 274 85 63 3 89 1 117 -12 51 -25 52 -47 6 -108 -21 -29 -38 -57 -36
-63 12 -35 82 -39 192 -10 28 8 91 18 140 24 183 21 331 35 372 35 23 0 37 4
30 8 -7 5 -3 8 12 8 13 0 52 5 86 11 52 10 64 16 73 38 9 20 10 21 6 4 -4 -17
-1 -23 11 -23 11 0 15 5 11 15 -3 9 0 15 9 15 8 0 15 -5 15 -11 0 -5 4 -8 9
-5 5 3 7 15 4 27 -4 13 -8 16 -13 9 -9 -15 -57 4 -57 23 0 10 23 24 59 37 33
12 58 23 56 26 -7 6 -557 -142 -705 -191 -22 -7 -15 -1 43 40 31 22 94 69 141
105 136 103 173 128 252 168 83 42 141 103 256 272 35 52 86 125 113 161 l48
67 94 -39 c52 -22 115 -48 140 -59 296 -124 496 -206 545 -225 33 -13 121 -51
195 -85 74 -34 168 -76 208 -93 41 -18 146 -66 235 -107 150 -71 194 -100 150
-100 -59 0 -280 -87 -475 -185 -37 -19 -93 -45 -125 -59 -32 -13 -123 -54
-203 -91 -188 -86 -554 -233 -700 -280 -201 -64 -463 -115 -600 -115 -169 0
-261 38 -1012 419 -304 155 -560 280 -568 278 -15 -3 256 -149 381 -206 35
-16 118 -58 184 -94 409 -220 700 -359 825 -395 30 -9 57 -19 60 -22 3 -4 27
-8 55 -9 27 -1 53 -8 57 -14 4 -7 8 -7 8 -2 0 6 21 12 46 13 68 3 198 28 394
77 196 49 287 79 470 155 69 28 149 60 178 71 66 24 296 128 562 254 280 132
362 163 483 181 56 8 103 16 104 18 5 5 -746 345 -897 406 -52 22 -142 60
-200 85 -58 25 -145 61 -195 80 -106 40 -331 135 -360 152 -20 12 -20 12 0 45
10 18 55 83 99 143 44 61 110 155 148 210 38 55 134 192 214 305 79 113 160
230 180 260 94 142 188 270 200 270 20 0 214 268 214 297 0 6 6 18 13 25 32
32 98 127 112 161 21 50 19 103 -6 154 -51 105 -205 172 -294 128z m168 -40
c63 -30 117 -109 117 -173 0 -27 -56 -132 -87 -162 -8 -8 -2 8 15 35 16 28 33
61 37 75 4 14 -10 -2 -30 -35 -53 -87 -62 -91 -22 -10 19 39 38 81 41 95 7 26
-1 13 -58 -98 -41 -81 -42 -56 -1 33 43 95 39 113 -4 21 -40 -84 -57 -95 -25
-16 31 76 30 89 -2 28 -27 -53 -40 -62 -29 -21 6 27 6 27 -14 9 -20 -18 -21
-18 -21 -1 0 15 -2 15 -16 4 -13 -10 -17 -10 -24 1 -5 7 -14 15 -22 16 -51 11
-138 40 -138 46 0 18 102 155 122 166 48 23 92 20 161 -13z m-205 -214 c37
-19 134 -114 166 -161 9 -13 16 -36 16 -50 -1 -23 -2 -23 -15 8 -22 51 -124
152 -180 178 -27 13 -67 24 -87 24 -20 0 -39 4 -42 9 -17 27 84 22 142 -8z
m-66 -21 c21 -6 45 -18 54 -28 17 -16 17 -17 0 -20 -12 -3 1 -18 46 -54 75
-60 111 -107 106 -139 -4 -21 -6 -19 -22 18 -26 62 -161 173 -208 173 -7 0 2
-10 20 -21 58 -37 37 -50 -38 -24 -62 22 -83 18 -30 -6 25 -11 51 -29 59 -41
15 -24 19 -24 -102 7 -57 15 -65 20 -55 33 7 8 21 18 33 22 18 8 18 9 1 9 -32
1 2 31 38 32 23 1 25 3 9 6 -25 5 -25 5 -17 27 7 19 51 21 106 6z m-122 -144
c73 -22 133 -65 205 -147 24 -27 25 -30 5 -14 -13 11 -38 33 -55 48 -44 42
-123 76 -193 83 -61 7 -70 17 -28 34 11 5 21 9 21 9 0 1 20 -5 45 -13z m213
-41 c32 -22 76 -90 75 -115 -1 -23 -1 -23 -5 -3 -5 27 -81 113 -117 132 -14 8
-26 19 -26 24 0 8 19 -2 73 -38z m-195 -15 c23 -10 42 -24 42 -30 0 -13 -5
-13 -64 5 -27 8 -67 15 -89 15 -34 0 -38 2 -27 15 17 21 86 19 138 -5z m-65
-49 c9 -1 17 -6 17 -11 0 -6 -42 -68 -93 -138 -51 -70 -104 -143 -117 -163
-14 -20 -59 -83 -100 -139 -41 -57 -106 -148 -145 -204 -76 -110 -107 -153
-265 -370 -114 -157 -229 -315 -330 -459 -163 -231 -171 -240 -185 -198 -3 11
-17 21 -31 23 -24 3 -20 10 73 136 54 74 127 176 163 228 65 93 230 322 348
484 103 141 189 261 244 340 28 41 88 125 133 185 45 61 105 145 135 188 59
87 79 105 112 101 13 -1 31 -3 41 -3z m27 -64 c-13 -23 -44 -69 -70 -102 -54
-69 -113 -155 -107 -155 6 0 158 207 186 253 25 41 23 39 45 31 13 -5 13 -10
4 -27 -11 -22 -11 -22 11 -3 70 63 -46 -117 -384 -593 -44 -62 -89 -127 -99
-145 -11 -17 -50 -71 -86 -121 -37 -49 -87 -119 -111 -155 -23 -36 -57 -83
-75 -105 -17 -22 -93 -128 -169 -235 -75 -107 -144 -201 -153 -207 -9 -7 -13
-13 -9 -13 9 0 -39 -97 -52 -105 -6 -3 2 15 15 40 14 25 23 45 21 45 -7 0 -97
-144 -97 -155 0 -12 -61 -75 -73 -75 -4 0 -5 6 -1 13 4 6 -5 1 -19 -12 -15
-13 -24 -28 -21 -32 3 -5 -13 -28 -35 -52 -23 -24 -38 -46 -36 -49 7 -7 -23
-32 -41 -34 -8 -1 -14 1 -14 6 0 12 28 32 32 23 3 -4 4 -3 2 3 -1 7 13 27 32
45 19 18 34 37 34 41 0 5 -24 -16 -52 -47 -48 -52 -57 -57 -100 -60 -27 -1
-48 0 -48 2 0 3 23 74 51 158 l50 153 51 26 c27 14 52 26 54 26 2 0 4 -24 4
-54 0 -30 5 -58 10 -61 6 -4 1 -19 -13 -38 -30 -40 -40 -57 -33 -57 3 0 18 18
32 40 15 22 32 40 39 40 7 0 18 7 25 15 9 11 15 12 20 5 8 -12 83 67 113 119
26 45 15 38 -23 -16 -19 -26 -36 -41 -38 -34 -2 6 2 19 10 29 7 9 -4 2 -26
-16 -21 -18 -40 -31 -43 -28 -2 2 22 37 55 78 55 68 108 145 85 123 -6 -5 -38
-46 -71 -91 -34 -45 -68 -87 -77 -94 -30 -25 -14 9 37 76 29 38 79 108 112
156 34 47 132 184 218 305 148 205 353 492 449 628 23 33 69 96 101 140 67 92
165 227 240 332 56 78 76 89 38 20z m240 -62 c0 -16 -4 -35 -8 -42 -4 -6 -7
13 -8 43 0 30 3 48 8 41 4 -6 8 -25 8 -42z m-490 -499 c0 -2 -8 -10 -17 -17
-16 -13 -17 -12 -4 4 13 16 21 21 21 13z m-70 -96 c-11 -16 -26 -33 -32 -36
-7 -4 1 9 16 29 34 44 46 50 16 7z m-40 -54 c0 -2 -8 -10 -17 -17 -16 -13 -17
-12 -4 4 13 16 21 21 21 13z m-80 -120 c0 -2 -8 -10 -17 -17 -16 -13 -17 -12
-4 4 13 16 21 21 21 13z m-50 -70 c0 -2 -8 -10 -17 -17 -16 -13 -17 -12 -4 4
13 16 21 21 21 13z m-30 -40 c0 -2 -8 -10 -17 -17 -16 -13 -17 -12 -4 4 13 16
21 21 21 13z m-120 -169 c0 -2 -10 -12 -22 -23 l-23 -19 19 23 c18 21 26 27
26 19z m-60 -81 c0 -2 -8 -10 -17 -17 -16 -13 -17 -12 -4 4 13 16 21 21 21 13z
m-30 -40 c0 -2 -8 -10 -17 -17 -16 -13 -17 -12 -4 4 13 16 21 21 21 13z m-420
-577 c-14 -11 -18 -17 -10 -13 15 8 100 16 100 9 0 -2 -12 -11 -27 -20 l-28
-15 30 6 c19 4 4 -7 -40 -30 -38 -20 -79 -46 -91 -57 -12 -11 -29 -22 -38 -23
-9 -1 -33 -18 -54 -37 l-37 -34 29 33 c19 20 25 32 16 32 -8 0 6 20 30 45 24
24 41 48 37 51 -10 10 12 34 27 28 6 -2 23 7 36 21 13 14 28 25 34 25 6 0 0
-10 -14 -21z m-280 -199 c-8 -5 -10 -10 -5 -10 6 0 3 -6 -5 -13 -8 -7 -16 -17
-17 -24 -5 -25 -112 -177 -113 -160 0 17 100 205 112 210 7 3 20 6 28 6 13 1
13 0 0 -9z"/>
<path d="M3470 3730 c-6 -11 -8 -20 -6 -20 3 0 10 9 16 20 6 11 8 20 6 20 -3
0 -10 -9 -16 -20z"/>
<path d="M3449 3653 c-13 -16 -12 -17 4 -4 16 13 21 21 13 21 -2 0 -10 -8 -17
-17z"/>
<path d="M3380 3595 c-17 -25 -29 -45 -26 -45 3 0 19 20 36 45 17 25 29 45 26
45 -3 0 -19 -20 -36 -45z"/>
<path d="M3390 3565 c-17 -25 -29 -45 -26 -45 3 0 19 20 36 45 17 25 29 45 26
45 -3 0 -19 -20 -36 -45z"/>
<path d="M3309 3493 c-13 -16 -12 -17 4 -4 16 13 21 21 13 21 -2 0 -10 -8 -17
-17z"/>
<path d="M3330 3480 c-12 -16 -19 -30 -16 -30 2 0 14 14 26 30 12 17 19 30 16
30 -2 0 -14 -13 -26 -30z"/>
<path d="M3274 3448 c-30 -34 -47 -58 -42 -58 3 0 19 18 37 40 34 43 38 55 5
18z"/>
<path d="M3239 3443 c-13 -16 -12 -17 4 -4 16 13 21 21 13 21 -2 0 -10 -8 -17
-17z"/>
<path d="M3284 3418 l-19 -23 23 19 c12 11 22 21 22 23 0 8 -8 2 -26 -19z"/>
<path d="M3133 3298 c-95 -131 -106 -148 -100 -148 2 0 27 30 54 68 87 118
145 202 139 202 -2 0 -44 -55 -93 -122z"/>
<path d="M3156 3280 c-31 -45 -51 -78 -46 -75 12 7 113 155 106 155 -3 0 -30
-36 -60 -80z"/>
<path d="M3149 3223 c-13 -16 -12 -17 4 -4 9 7 17 15 17 17 0 8 -8 3 -21 -13z"/>
<path d="M3110 3170 c-12 -16 -19 -30 -16 -30 2 0 14 14 26 30 12 17 19 30 16
30 -2 0 -14 -13 -26 -30z"/>
<path d="M3079 3173 c-13 -16 -12 -17 4 -4 16 13 21 21 13 21 -2 0 -10 -8 -17
-17z"/>
<path d="M2975 3073 c-48 -66 -136 -191 -150 -212 -3 -6 -4 -11 -1 -11 3 0 29
35 57 78 29 42 67 95 84 117 36 44 69 95 64 95 -3 0 -27 -30 -54 -67z"/>
<path d="M3060 3100 c-12 -16 -19 -30 -16 -30 2 0 14 14 26 30 12 17 19 30 16
30 -2 0 -14 -13 -26 -30z"/>
<path d="M2984 3033 c-42 -54 -76 -103 -71 -103 3 0 22 24 44 52 21 29 44 61
51 70 25 34 5 18 -24 -19z"/>
<path d="M2980 2980 c-22 -33 -38 -60 -36 -60 3 0 24 27 46 60 22 33 38 60 36
60 -3 0 -24 -27 -46 -60z"/>
<path d="M2880 2890 c-12 -16 -19 -30 -16 -30 2 0 14 14 26 30 12 17 19 30 16
30 -2 0 -14 -13 -26 -30z"/>
<path d="M2889 2853 c-23 -32 -36 -53 -28 -46 17 14 83 103 76 103 -3 0 -24
-26 -48 -57z"/>
<path d="M2714 2708 c-92 -122 -138 -189 -102 -148 18 22 193 252 202 268 4 6
5 12 3 12 -2 0 -49 -60 -103 -132z"/>
<path d="M2829 2773 c-13 -16 -12 -17 4 -4 16 13 21 21 13 21 -2 0 -10 -8 -17
-17z"/>
<path d="M2779 2743 c-13 -16 -12 -17 4 -4 16 13 21 21 13 21 -2 0 -10 -8 -17
-17z"/>
<path d="M2744 2698 l-19 -23 23 19 c12 11 22 21 22 23 0 8 -8 2 -26 -19z"/>
<path d="M2709 2653 c-13 -16 -12 -17 4 -4 9 7 17 15 17 17 0 8 -8 3 -21 -13z"/>
<path d="M2679 2613 c-29 -35 -41 -53 -36 -53 2 0 17 16 31 35 28 36 31 49 5
18z"/>
<path d="M2667 2548 c-55 -75 -78 -112 -60 -93 18 18 123 165 118 165 -3 0
-29 -33 -58 -72z"/>
<path d="M2623 2538 c-15 -20 -25 -38 -20 -38 3 0 12 11 21 25 17 26 16 35 -1
13z"/>
<path d="M2537 2463 c-30 -43 -74 -104 -96 -135 -23 -32 -40 -58 -37 -58 2 0
38 46 78 103 101 139 120 167 115 167 -3 0 -30 -35 -60 -77z"/>
<path d="M2561 2443 c-25 -36 -26 -41 -6 -18 26 30 49 65 42 65 -2 0 -18 -21
-36 -47z"/>
<path d="M2555 2388 c-21 -29 -43 -59 -48 -65 -5 -7 -7 -13 -4 -13 4 0 68 83
90 117 20 32 -2 8 -38 -39z"/>
<path d="M2470 2320 c-12 -16 -19 -30 -16 -30 2 0 14 14 26 30 12 17 19 30 16
30 -2 0 -14 -13 -26 -30z"/>
<path d="M2459 2253 c-13 -16 -12 -17 4 -4 9 7 17 15 17 17 0 8 -8 3 -21 -13z"/>
<path d="M2409 2233 c-13 -16 -12 -17 4 -4 9 7 17 15 17 17 0 8 -8 3 -21 -13z"/>
<path d="M2235 1963 l-17 -28 23 22 c12 12 20 25 17 28 -3 3 -13 -7 -23 -22z"/>
<path d="M2249 1943 c-13 -16 -12 -17 4 -4 9 7 17 15 17 17 0 8 -8 3 -21 -13z"/>
<path d="M2199 1913 c-13 -16 -12 -17 4 -4 9 7 17 15 17 17 0 8 -8 3 -21 -13z"/>
<path d="M2139 1863 c-13 -16 -12 -17 4 -4 9 7 17 15 17 17 0 8 -8 3 -21 -13z"/>
<path d="M2109 1823 c-13 -16 -12 -17 4 -4 9 7 17 15 17 17 0 8 -8 3 -21 -13z"/>
<path d="M2254 1866 c-33 -24 -70 -56 -84 -72 -14 -16 -18 -23 -10 -17 8 6 18
11 21 10 3 -1 36 19 74 46 38 26 65 47 61 47 -4 0 -21 -9 -38 -21 -16 -12 -32
-19 -35 -16 -3 3 16 20 43 36 26 17 43 31 37 31 -6 0 -37 -20 -69 -44z m-14
-30 c0 -3 -15 -15 -32 -27 l-33 -23 24 27 c22 24 41 35 41 23z"/>
<path d="M2216 1882 c-3 -5 1 -9 9 -9 8 0 12 4 9 9 -3 4 -7 8 -9 8 -2 0 -6 -4
-9 -8z"/>
<path d="M3390 1794 c-166 -64 -230 -88 -435 -164 -208 -77 -510 -193 -925
-355 -102 -40 -194 -76 -205 -80 -12 -4 -15 -9 -8 -12 14 -5 65 13 277 99 82
33 179 70 215 83 36 13 154 58 261 100 107 42 249 96 315 120 66 24 167 61
225 84 58 22 162 61 233 88 70 26 127 51 127 55 0 12 -8 10 -80 -18z"/>
<path d="M3535 1780 c-11 -5 -76 -30 -145 -56 -126 -48 -158 -64 -128 -64 16
0 304 113 315 124 9 9 -18 6 -42 -4z"/>
<path d="M3640 1749 c-8 -5 -37 -16 -65 -25 -60 -20 -85 -39 -39 -31 45 9 140
52 128 59 -5 4 -16 3 -24 -3z"/>
<path d="M3565 1646 c-99 -39 -220 -87 -269 -105 -130 -49 -159 -61 -152 -68
3 -4 68 18 143 47 76 29 179 68 228 87 50 19 115 44 145 57 30 13 65 27 78 31
20 6 32 26 15 24 -5 0 -89 -33 -188 -73z"/>
<path d="M3722 1633 c-61 -25 -110 -48 -107 -53 5 -7 236 78 251 93 18 17 -40
2 -144 -40z"/>
<path d="M3335 1629 c-55 -22 -129 -51 -165 -63 -36 -13 -174 -67 -307 -120
-133 -53 -245 -96 -248 -96 -4 0 -115 -43 -248 -96 -133 -53 -269 -105 -302
-116 -62 -21 -101 -45 -55 -35 43 10 208 71 425 159 116 47 228 91 250 98 22
7 146 55 275 106 129 51 291 113 360 139 119 44 162 66 130 64 -8 0 -60 -18
-115 -40z"/>
<path d="M3075 1602 c-66 -25 -240 -91 -387 -148 -146 -57 -269 -104 -273
-104 -20 0 -516 -206 -502 -208 9 -2 141 46 294 106 463 183 640 251 823 319
96 35 176 66 178 68 2 2 0 5 -5 8 -4 2 -62 -16 -128 -41z"/>
<path d="M2530 1625 c-7 -9 -8 -15 -2 -15 5 0 12 7 16 15 3 8 4 15 2 15 -2 0
-9 -7 -16 -15z"/>
<path d="M2577 1629 c7 -7 15 -10 18 -7 3 3 -2 9 -12 12 -14 6 -15 5 -6 -5z"/>
<path d="M3268 1457 c-137 -55 -248 -104 -248 -108 0 -11 67 13 310 111 232
93 246 100 210 98 -14 0 -136 -46 -272 -101z"/>
<path d="M3025 1434 c-33 -14 -118 -47 -190 -74 -71 -26 -229 -87 -350 -134
-121 -48 -256 -101 -300 -118 -44 -17 -84 -35 -90 -40 -20 -18 24 -6 120 32
128 51 631 247 755 295 102 38 127 51 120 59 -3 2 -32 -7 -65 -20z"/>
<path d="M2700 1235 c-129 -52 -284 -113 -345 -136 -163 -62 -182 -71 -167
-76 8 -3 30 2 50 10 21 9 98 39 172 67 273 105 545 213 555 221 26 24 -52 -1
-265 -86z"/>
</g>
</svg>
