<svg version="1.0" xmlns="http://www.w3.org/2000/svg"
     width="500.000000pt" height="500.000000pt" viewBox="0 0 500.000000 500.000000"
     preserveAspectRatio="xMidYMid meet">

    <g transform="translate(0.000000,500.000000) scale(0.100000,-0.100000)"
       fill="#3f51b5" stroke="none">
        <path d="M1633 3901 c-41 -19 -65 -46 -78 -88 -5 -19 -2 -23 14 -23 11 0 33
-11 48 -24 l28 -24 -1 -144 c0 -78 -4 -156 -8 -171 -7 -22 -4 -33 14 -53 30
-31 60 -31 89 0 19 21 22 31 16 58 -5 18 -9 92 -9 163 -1 148 10 181 64 192
34 6 36 13 16 51 -35 68 -122 96 -193 63z"/>
        <path d="M2155 3900 c-38 -19 -85 -73 -85 -98 0 -7 9 -12 19 -12 11 0 33 -11
48 -24 28 -24 28 -26 31 -152 3 -85 -1 -141 -9 -167 -11 -34 -10 -40 8 -65 27
-37 69 -36 96 1 18 24 20 31 9 60 -7 20 -12 87 -12 161 l0 128 29 29 c16 16
39 29 50 29 47 0 3 78 -61 109 -55 26 -72 26 -123 1z"/>
        <path d="M2673 3900 c-60 -27 -109 -110 -65 -110 10 0 31 -13 46 -29 l28 -29
-3 -177 c-4 -167 -3 -177 16 -191 29 -21 65 -13 89 19 17 24 18 31 8 60 -7 20
-12 87 -12 161 l0 128 29 29 c16 16 39 29 50 29 27 0 26 16 -1 57 -24 34 -89
73 -124 73 -10 0 -38 -9 -61 -20z"/>
        <path d="M1315 3691 c-57 -20 -122 -59 -147 -87 -9 -11 -31 -48 -50 -84 l-33
-65 0 -1135 0 -1135 37 -67 c44 -76 80 -111 158 -147 l55 -26 965 0 965 0 55
26 c68 32 116 79 155 150 l30 54 3 203 c3 147 0 207 -8 218 -27 31 -55 15
-164 -95 l-109 -109 -81 -22 c-44 -12 -202 -58 -351 -100 -366 -106 -351 -103
-375 -90 -42 23 -38 47 103 552 61 218 65 229 107 275 24 26 166 174 315 328
149 154 337 349 418 434 l147 154 0 68 c0 43 -5 71 -12 76 -7 4 -90 10 -183
13 -157 5 -175 7 -220 30 -41 21 -55 36 -77 80 -26 49 -28 63 -28 162 0 116 9
148 40 148 37 0 50 -37 50 -146 0 -112 12 -141 67 -162 29 -11 353 -23 353
-13 0 4 -118 124 -263 269 l-262 262 -46 0 c-28 0 -51 -6 -58 -14 -12 -15 -10
-167 4 -281 5 -40 2 -56 -14 -83 -60 -96 -207 -96 -257 -1 -17 34 -17 38 -8
227 4 89 2 127 -6 137 -10 11 -37 15 -114 15 -55 0 -107 -4 -114 -9 -13 -8
-13 -42 0 -303 1 -25 -5 -47 -18 -65 -77 -104 -211 -96 -266 16 -19 39 -20 49
-10 88 7 24 12 92 12 152 0 90 -3 110 -16 115 -24 9 -207 7 -223 -3 -12 -8
-13 -38 -8 -172 6 -175 3 -191 -47 -238 -36 -33 -117 -40 -166 -13 -62 34 -69
61 -63 249 5 135 4 166 -8 174 -26 16 -180 10 -234 -10z m493 -813 c7 -7 12
-21 12 -32 -1 -28 -222 -256 -249 -256 -22 0 -131 90 -145 120 -11 24 -3 46
23 60 18 9 28 5 69 -34 l48 -45 99 99 c98 99 119 112 143 88z m1076 -214 c21
-8 21 -60 0 -68 -9 -3 -228 -6 -488 -6 -488 0 -496 1 -496 40 0 39 8 40 496
40 260 0 479 -3 488 -6z m-1152 -241 c10 -9 18 -22 18 -29 0 -18 -176 -194
-194 -194 -18 0 -56 34 -56 51 0 18 20 49 32 49 6 0 44 32 84 70 39 39 78 70
85 70 7 0 21 -7 31 -17z m842 -155 c13 -19 14 -25 2 -43 -13 -19 -24 -20 -326
-23 -281 -2 -315 -1 -332 14 -22 21 -23 38 -2 58 13 14 57 16 329 16 312 0
314 0 329 -22z m-836 -220 c7 -7 12 -18 12 -26 0 -20 -180 -192 -201 -192 -23
0 -48 36 -42 61 3 11 15 24 26 30 11 6 49 40 85 75 65 64 95 77 120 52z m646
-144 c20 -19 20 -24 0 -52 -15 -22 -19 -22 -234 -22 -185 0 -221 2 -234 16
-21 21 -20 51 2 63 10 6 105 11 234 11 184 0 219 -2 232 -16z m-646 -254 c20
-19 22 -30 22 -150 0 -165 5 -160 -170 -160 -175 0 -170 -4 -170 157 0 116 2
129 22 150 20 22 29 23 148 23 113 0 128 -2 148 -20z m596 -136 c20 -20 20
-33 -1 -56 -14 -16 -35 -18 -206 -18 -163 0 -193 2 -209 17 -23 20 -23 49 0
62 10 6 97 11 209 11 161 0 194 -2 207 -16z"/>
        <path d="M3781 3060 c-43 -20 -127 -103 -500 -495 -68 -71 -145 -150 -170
-175 -85 -83 -446 -461 -453 -475 -5 -7 -20 -58 -34 -112 -14 -54 -50 -189
-81 -301 -37 -134 -52 -207 -46 -213 9 -9 369 81 506 126 23 7 80 25 127 40
l85 27 110 117 c60 64 249 260 420 436 479 495 492 508 509 542 9 19 16 57 16
91 0 74 -9 88 -169 250 -160 163 -217 188 -320 142z m273 -220 l139 -139 -6
-42 c-4 -30 -16 -52 -43 -80 -21 -22 -42 -39 -47 -39 -5 0 -89 81 -188 180
l-179 179 32 37 c42 47 81 64 122 53 20 -6 80 -58 170 -149z m-185 -185 c189
-189 189 -190 128 -225 l-27 -15 -175 175 c-96 96 -175 178 -175 181 0 12 49
59 61 59 7 0 91 -79 188 -175z m-231 -18 c39 -41 72 -79 72 -85 0 -6 -121
-134 -268 -284 -456 -464 -451 -459 -472 -448 -10 6 -48 10 -84 10 -64 0 -67
1 -86 33 -11 17 -20 35 -20 39 0 14 766 808 779 808 4 0 39 -33 79 -73z m241
-241 l44 -45 -38 -43 c-21 -24 -130 -138 -244 -253 -113 -116 -264 -270 -334
-343 -142 -147 -126 -140 -224 -96 -76 33 -73 49 40 158 50 50 223 225 384
389 326 334 293 313 372 233z m-1011 -641 l92 -7 0 -84 c0 -59 4 -86 13 -88
59 -19 107 -40 100 -46 -8 -7 -322 -101 -335 -100 -4 0 -17 18 -28 40 -16 31
-26 40 -46 40 -18 0 -24 4 -21 13 3 8 19 63 36 123 16 61 35 123 41 139 l11
29 22 -26 c20 -24 31 -27 115 -33z"/>
    </g>
</svg>
