<?xml version="1.0" encoding="UTF-8"?>
<svg version="1.1" xmlns="http://www.w3.org/2000/svg" width="1024" height="1024">
<path d="M0 0 C0.63566895 1.48838379 0.63566895 1.48838379 1.28417969 3.00683594 C6.707243 15.30023441 13.71277185 26.16143787 21.25 37.25 C47.71137066 76.33243212 72.79133492 118.79457774 63.48095703 167.89038086 C59.48320702 186.44568353 50.6231814 203.73532338 37 217 C36.21625 217.969375 35.4325 218.93875 34.625 219.9375 C31.81923601 223.3667671 28.61673024 226.43093721 25 229 C24.34 229 23.68 229 23 229 C23 229.66 23 230.32 23 231 C21.56640625 232.41015625 21.56640625 232.41015625 19.5625 234.0625 C15.41038212 237.57070655 11.64192767 241.35450405 7.8828125 245.27734375 C6 247 6 247 4 247 C2.70636358 241.06109117 2.85647349 235.16209558 2.8671875 229.1171875 C2.86582291 227.93360153 2.86445831 226.75001556 2.86305237 225.53056335 C2.8610178 221.64534764 2.86736908 217.76020803 2.875 213.875 C2.87637837 212.53815729 2.8776087 211.20131442 2.87869263 209.86447144 C2.89725013 190.42773698 3.07706829 170.99621167 3.4375 151.5625 C3.4570575 150.44591003 3.47661499 149.32932007 3.49676514 148.17889404 C3.55346505 145.03708957 3.61703457 141.89551567 3.68359375 138.75390625 C3.70031631 137.83268478 3.71703888 136.91146332 3.73426819 135.96232605 C3.83128251 131.82957491 4.1496133 128.05494582 5 124 C4.21148238 121.43627182 4.21148238 121.43627182 2.875 118.8125 C-0.70092925 110.80922977 -2.79159218 102.45773208 -5 94 C-5.23074219 95.08796875 -5.46148437 96.1759375 -5.69921875 97.296875 C-7.47948211 105.41128391 -9.48799136 112.98447639 -12.94921875 120.58203125 C-13.89032846 122.74763316 -14.62125182 124.6719612 -15 127 C-14.67 127.66 -14.34 128.32 -14 129 C-13.61400301 133.15279524 -13.56297839 137.33236183 -13.4375 141.5 C-13.41665344 142.17496521 -13.39580688 142.84993042 -13.37432861 143.54534912 C-12.87845036 160.32439633 -12.88929623 177.11252171 -12.87706375 193.89743042 C-12.87501306 196.11090462 -12.87125415 198.32437053 -12.86715698 200.5378418 C-12.86119164 204.10203793 -12.86122781 207.66619065 -12.86561775 211.23038864 C-12.86712777 213.18066149 -12.86424965 215.13093624 -12.8611908 217.08120728 C-12.87758647 223.4916767 -13.00459322 229.8938137 -13.32080078 236.29638672 C-13.40601486 238.15032547 -13.40601486 238.15032547 -13.49295044 240.04171753 C-13.66027679 241.01795074 -13.82760315 241.99418396 -14 243 C-14.99 243.66 -15.98 244.32 -17 245 C-23.78867295 239.56380928 -30.31594997 233.98416856 -36.6875 228.06640625 C-39.01802691 225.88630363 -39.01802691 225.88630363 -42 224 C-42 223.34 -42 222.68 -42 222 C-42.56203125 221.77957031 -43.1240625 221.55914062 -43.703125 221.33203125 C-52.60978917 216.16677192 -59.17015697 203.65256632 -64 195 C-64.47179687 194.16597656 -64.94359375 193.33195313 -65.4296875 192.47265625 C-79.49364342 164.8251901 -76.90138761 130.94073277 -67.88476562 102.3034668 C-60.08668223 78.74376646 -46.42935209 57.42397861 -32.43359375 37.08935547 C-30.98361874 34.97612554 -29.55265769 32.85101377 -28.125 30.72265625 C-22.78880005 22.80436472 -17.210441 15.26703777 -11 8 C-10.34902344 7.19175781 -9.69804687 6.38351563 -9.02734375 5.55078125 C-8.11662109 4.44283203 -8.11662109 4.44283203 -7.1875 3.3125 C-6.66542969 2.66925781 -6.14335937 2.02601563 -5.60546875 1.36328125 C-4 0 -4 0 0 0 Z " fill="#F2F2F1" transform="translate(513,234)"/>
<path d="M0 0 C0.66 0 1.32 0 2 0 C6.00451556 7.25325216 8.5570039 14.42989518 10.625 22.4375 C10.92349854 23.58927734 11.22199707 24.74105469 11.52954102 25.92773438 C12.37891521 29.27948304 13.19847378 32.63651784 14 36 C14.19932129 36.8264502 14.39864258 37.65290039 14.60400391 38.50439453 C22.0641544 70.99860707 18.02651881 108.20909517 1 137 C-5.62670749 146.8876871 -13.4872383 155.46365151 -23 162.625 C-23.6707959 163.1307959 -24.3415918 163.6365918 -25.03271484 164.15771484 C-31.873051 169.15801438 -39.19763684 173.18672628 -46.60888672 177.26831055 C-58.71199756 183.97102749 -68.7601735 190.72444794 -77 202 C-77.99 201.67 -78.98 201.34 -80 201 C-79.96173125 192.09738815 -79.90206649 183.19523798 -79.81609726 174.29295826 C-79.77681607 170.15793734 -79.74453386 166.0231232 -79.72900391 161.88793945 C-79.7137082 157.88706623 -79.6790393 153.88676228 -79.63169098 149.88614464 C-79.61700878 148.3702156 -79.60896667 146.85420523 -79.60811615 145.33820534 C-79.58742785 126.92963492 -74.25339054 109.64868397 -61.23828125 96.15234375 C-58.65839139 93.67150725 -56.03191404 91.28493545 -53.296875 88.9765625 C-50.2938903 86.39236138 -47.40124361 83.69732101 -44.5 81 C-40.9188309 77.67521354 -37.32711796 74.37823591 -33.625 71.1875 C-26.70681526 65.15726281 -21.30864087 59.01765696 -16.375 51.25 C-15.80668457 50.36111084 -15.23836914 49.47222168 -14.65283203 48.55639648 C-4.86138996 33.0345903 -1.83421173 18.0184329 0 0 Z " fill="#F2F2F1" transform="translate(596,398)"/>
<path d="M0 0 C3.39634356 3.32320092 5.83103502 6.66530678 8.33984375 10.68359375 C10.31189666 13.43518758 12.57126986 15.64376927 15 18 C16.18916016 19.25876953 16.18916016 19.25876953 17.40234375 20.54296875 C25.42997935 28.91694302 34.34839139 35.21762451 43.95703125 41.6484375 C53.20387763 47.86562335 61.76194866 54.4936433 70 62 C70.91652344 62.82113281 71.83304687 63.64226563 72.77734375 64.48828125 C82.16936042 73.33038015 90.71872286 85.02765289 93 98 C92.5859375 100.83984375 92.5859375 100.83984375 92 103 C89.24434777 100.50479051 87.46837085 97.70271875 85.5 94.5625 C81.9600128 89.14024349 78.00957535 84.47850164 73.50585938 79.83422852 C70 76.18890338 70 76.18890338 70 74 C68.515 73.505 68.515 73.505 67 73 C65.29345537 71.37418913 63.63083658 69.70174252 62 68 C53.69057015 59.84843496 44.58595822 53.21064068 35.109375 46.50146484 C29.24451256 42.32682318 23.41661846 38.07812668 17.9296875 33.4140625 C16.94226563 32.57617188 15.95484375 31.73828125 14.9375 30.875 C14.05964844 30.10929688 13.18179687 29.34359375 12.27734375 28.5546875 C11.52582031 28.04164063 10.77429688 27.52859375 10 27 C9.01 27.33 8.02 27.66 7 28 C11.05269515 33.3926329 15.74922352 37.05520636 21.1875 41 C22.98276274 42.3241771 24.77701195 43.64972927 26.5703125 44.9765625 C27.47555664 45.64461914 28.38080078 46.31267578 29.31347656 47.00097656 C36.30750618 52.20518544 43.15409901 57.60330753 50 63 C50.5554248 63.43538086 51.11084961 63.87076172 51.68310547 64.31933594 C66.13784358 75.68222538 76.77469465 88.32604561 85.875 104.1875 C86.23215088 104.80383301 86.58930176 105.42016602 86.95727539 106.05517578 C92.62446832 116.25585566 94.60956413 125.4459289 94.6796875 137.09375 C94.7009671 138.40283325 94.7222467 139.7119165 94.74417114 141.06066895 C94.78761929 143.80704986 94.81833916 146.55315876 94.83886719 149.29980469 C94.86563122 152.81850565 94.9187023 156.33620992 94.98036003 159.85445404 C95.03722155 163.22577085 95.07693064 166.59719246 95.1171875 169.96875 C95.13683563 171.2311853 95.15648376 172.49362061 95.17672729 173.79431152 C95.18398834 174.95982544 95.19124939 176.12533936 95.19873047 177.32617188 C95.20887177 178.35222534 95.21901306 179.37827881 95.22946167 180.4354248 C95 183 95 183 93 186 C89.92078868 186.25660094 87.78863007 186.39431504 85 185 C84.03765276 182.55093054 83.16058177 180.11319474 82.3125 177.625 C75.22768897 157.94132829 60.4975689 143.89754881 43.69140625 131.9921875 C39.16783944 128.6438289 35.08334911 124.8649528 31 121 C30.21496094 120.2678125 29.42992187 119.535625 28.62109375 118.78125 C8.80876836 99.73996265 -2.56126974 70.6833831 -3.26522827 43.42247009 C-3.31356424 40.25646429 -3.32431803 37.09163095 -3.31567383 33.92529297 C-3.31250409 31.50312616 -3.33610387 29.08217413 -3.36132812 26.66015625 C-3.39739708 17.32365425 -2.65234974 9.01578133 0 0 Z " fill="#EEEEEE" transform="translate(405,486)"/>
<path d="M0 0 C3.47565519 2.01712132 5.70453512 4.11360536 7 8 C7.31988082 14.24224565 6.9518523 20.49097593 6.54150391 26.72070312 C3.79849363 70.44798725 19.00278599 114.28094784 47.8984375 147.16015625 C52 151.84903169 52 151.84903169 52 154 C53.98 154.99 53.98 154.99 56 156 C56 156.66 56 157.32 56 158 C56.66 158 57.32 158 58 158 C58.56460938 158.71414063 59.12921875 159.42828125 59.7109375 160.1640625 C62.37014017 163.45856956 65.27840142 165.81676759 68.625 168.375 C69.5684729 169.10106445 69.5684729 169.10106445 70.53100586 169.84179688 C71.78762018 170.80405029 73.04691443 171.76281578 74.30908203 172.71777344 C75.68337075 173.75989939 77.04485529 174.81889471 78.40234375 175.8828125 C87.89930689 182.99265471 99.06868705 188.26581293 109.77734375 193.30761719 C110.66550781 193.72946289 111.55367188 194.15130859 112.46875 194.5859375 C113.26732422 194.95509277 114.06589844 195.32424805 114.88867188 195.70458984 C118.08865374 197.66794597 119.63515417 199.90546252 120.8125 203.4375 C121.04625571 206.6321613 120.57411125 208.20953005 119 211 C116.86235474 213.39675378 115.26858665 214.81787695 112.02563477 215.28344727 C106.22493381 215.36998662 102.13376784 214.2555461 97 211.625 C95.9169458 211.09132813 95.9169458 211.09132813 94.81201172 210.546875 C78.56903679 202.39552267 64.09201114 192.44675307 50 181 C48.69095703 179.95972656 48.69095703 179.95972656 47.35546875 178.8984375 C45.06049443 177.0487567 42.9721472 175.19127466 41 173 C41 172.34 41 171.68 41 171 C40.34 171 39.68 171 39 171 C6.13720659 140.14921435 -14.2237596 90.95031146 -16.15234375 46.48779297 C-17.10860774 10.76655157 -17.10860774 10.76655157 -11 2 C-7.57080428 -0.57189679 -4.16060514 -0.502142 0 0 Z " fill="#EAEBEB" transform="translate(346,492)"/>
<path d="M0 0 C3.15943084 0.87761968 3.86503737 1.79505675 5.6875 4.5625 C7.29131869 8.76297751 7.66142405 12.54808648 8 17 C8.1867015 18.62509194 8.37421684 20.25009056 8.5625 21.875 C9.08243111 27.27238012 9.14537068 32.58163815 9 38 C8.97164062 39.28390625 8.94328125 40.5678125 8.9140625 41.890625 C7.93348918 71.90993117 0.01722711 101.9464905 -15 128 C-16.12952467 130.06002555 -17.25459878 132.12249822 -18.375 134.1875 C-19.25 135.79166667 -20.125 137.39583333 -21 139 C-21.66 139 -22.32 139 -23 139 C-23 139.99 -23 140.98 -23 142 C-23.66 142 -24.32 142 -25 142 C-25.2578125 142.71542969 -25.515625 143.43085937 -25.78125 144.16796875 C-27.07384765 147.17160111 -28.6277709 149.63505372 -30.5 152.3125 C-31.1084375 153.19550781 -31.716875 154.07851563 -32.34375 154.98828125 C-32.8903125 155.65214844 -33.436875 156.31601562 -34 157 C-34.66 157 -35.32 157 -36 157 C-36 157.66 -36 158.32 -36 159 C-36.66 159 -37.32 159 -38 159 C-38.268125 159.5775 -38.53625 160.155 -38.8125 160.75 C-40.02929189 163.05550043 -41.30333879 165.02056192 -43 167 C-43.66 167 -44.32 167 -45 167 C-45.33 167.99 -45.66 168.98 -46 170 C-46.66 170 -47.32 170 -48 170 C-48.20625 170.54011719 -48.4125 171.08023438 -48.625 171.63671875 C-50.54138528 174.93050595 -53.20384917 177.27896225 -56 179.8125 C-56.87567627 180.61252441 -56.87567627 180.61252441 -57.76904297 181.42871094 C-61.81107722 185.06510489 -65.97523222 188.32503117 -70.51171875 191.33203125 C-74.33931655 193.89778362 -77.98133111 196.71246258 -81.65234375 199.49609375 C-84 201 -84 201 -87 201 C-87 201.66 -87 202.32 -87 203 C-89.6634594 204.44371606 -92.3304992 205.88003077 -95 207.3125 C-95.74378906 207.71662109 -96.48757813 208.12074219 -97.25390625 208.53710938 C-104.64228064 212.48828351 -111.44596263 215.96577841 -120 215 C-125.5 212 -125.5 212 -127 209 C-127.42002104 204.27476327 -126.79247347 201.81598599 -124 198 C-121.453125 196.21875 -121.453125 196.21875 -118.25 194.5 C-116.99602693 193.81001726 -115.74212615 193.11990313 -114.48828125 192.4296875 C-112.99220649 191.61975659 -111.49611091 190.80986414 -110 190 C-91.14935687 179.77312418 -91.14935687 179.77312418 -74 167 C-73.48937012 166.56478027 -72.97874023 166.12956055 -72.45263672 165.68115234 C-65.14411766 159.41058289 -58.88657861 152.63369132 -53 145 C-52.11560213 143.94466528 -51.22876625 142.89137015 -50.33984375 141.83984375 C-30.58357417 117.80710583 -17.21524238 85.82503011 -14 55 C-13.80664062 53.19789063 -13.80664062 53.19789063 -13.609375 51.359375 C-12.78258632 42.17766908 -12.67904023 33.05802138 -13.5 23.875 C-14.76297379 9.4733287 -14.76297379 9.4733287 -12.1875 4.5 C-8.28601681 0.04116207 -5.78036624 -0.40563974 0 0 Z " fill="#ECEEEE" transform="translate(677,492)"/>
<path d="M0 0 C2.31202689 2.31202689 2.45810213 3.33531268 3.078125 6.48046875 C3.26600586 7.38990234 3.45388672 8.29933594 3.64746094 9.23632812 C3.84629883 10.21021484 4.04513672 11.18410156 4.25 12.1875 C8.66084777 32.43938649 16.79282812 47.99167181 31 63 C32.15443518 64.34684105 33.30133807 65.70020875 34.4375 67.0625 C36.66388997 69.99029015 36.66388997 69.99029015 39 71 C39 71.66 39 72.32 39 73 C39.58265625 73.268125 40.1653125 73.53625 40.765625 73.8125 C43.02786601 75.01480991 44.80576318 76.33825913 46.75 78 C47.67039062 78.7734375 47.67039062 78.7734375 48.609375 79.5625 C50 81 50 81 50 83 C50.57234375 83.24878906 51.1446875 83.49757813 51.734375 83.75390625 C65.5724028 91.36482154 75.32490846 109.93785155 80.16796875 124.515625 C81.37369858 129.11211618 82.13730396 133.23726888 82 138 C81.01 138.33 80.02 138.66 79 139 C78.16855469 138.15695312 77.33710938 137.31390625 76.48046875 136.4453125 C75.38294603 135.33840925 74.28528241 134.2316457 73.1875 133.125 C72.64029297 132.56941406 72.09308594 132.01382813 71.52929688 131.44140625 C70.99755859 130.90644531 70.46582031 130.37148438 69.91796875 129.8203125 C69.43094482 129.32805176 68.9439209 128.83579102 68.44213867 128.32861328 C66.82996499 126.77411511 66.82996499 126.77411511 64 125 C64 124.34 64 123.68 64 123 C63.18789063 122.64228516 63.18789063 122.64228516 62.359375 122.27734375 C59.38168895 120.66525213 56.9036273 118.66721708 54.25 116.5625 C49.30048923 112.67613846 44.22344328 109.06991125 39 105.5625 C16.74692548 90.42243808 0.02329261 71.39204917 -5.78515625 44.34375 C-8.07128559 30.17277605 -8.59581412 12.27973446 0 0 Z " fill="#EBEBEB" transform="translate(417,401)"/>
<path d="M0 0 C0.50951498 12.5468065 -5.26264178 22.55027562 -13 32 C-13.66515625 32.87398437 -13.66515625 32.87398437 -14.34375 33.765625 C-17.71054442 38.08786108 -21.8176852 41.50538126 -26 45 C-26.95390625 45.80695312 -27.9078125 46.61390625 -28.890625 47.4453125 C-36.73981191 54 -36.73981191 54 -39 54 C-39 54.66 -39 55.32 -39 56 C-40.546875 57.33984375 -40.546875 57.33984375 -42.75 58.9375 C-59.26225641 71.4586423 -69.63953038 85.23077526 -76.2734375 104.98828125 C-77 107 -77 107 -78 108 C-81.5 108.125 -81.5 108.125 -85 108 C-87.64351294 105.35648706 -86.31149783 98.03331757 -86.31689453 94.48828125 C-86.11145217 79.41236296 -81.25990554 64.06593752 -72 52 C-71.33484375 51.12021484 -71.33484375 51.12021484 -70.65625 50.22265625 C-60.94215467 38.19908237 -47.7597333 31.41456037 -34.26489258 24.52905273 C-24.04408888 19.25395916 -14.85751525 13.39824887 -6.9375 5 C-2.20244565 0 -2.20244565 0 0 0 Z " fill="#E6E6E7" transform="translate(603,564)"/>
<path d="M0 0 C2 2 2 2 2.09106445 3.84765625 C1.84564872 6.23394943 1.59461271 8.6177149 1.3125 11 C1.19358398 12.24910156 1.19358398 12.24910156 1.07226562 13.5234375 C0.98267578 14.32007813 0.89308594 15.11671875 0.80078125 15.9375 C0.71997314 16.66839844 0.63916504 17.39929688 0.5559082 18.15234375 C0 20 0 20 -3 22 C-4.97302246 22.20927429 -4.97302246 22.20927429 -7.24023438 22.15112305 C-8.09121704 22.13417892 -8.94219971 22.1172348 -9.81896973 22.09977722 C-10.73464722 22.07071793 -11.65032471 22.04165863 -12.59375 22.01171875 C-13.53682007 21.98906448 -14.47989014 21.96641022 -15.45153809 21.94306946 C-17.44552207 21.89311262 -19.43938593 21.83814798 -21.43310547 21.77856445 C-24.4877686 21.68786318 -27.54250337 21.61312452 -30.59765625 21.54101562 C-32.53387891 21.49052349 -34.47007811 21.43912176 -36.40625 21.38671875 C-37.32192749 21.36373215 -38.23760498 21.34074554 -39.18103027 21.31706238 C-40.03201294 21.29066177 -40.88299561 21.26426117 -41.75976562 21.23706055 C-42.50794556 21.21548386 -43.25612549 21.19390717 -44.02697754 21.17167664 C-46 21 -46 21 -49 20 C-50.32388229 13.56971459 -51.24794402 7.5705166 -51 1 C-45.78981996 0.13020984 -40.82260945 -0.12150917 -35.546875 -0.0625 C-34.76483704 -0.05871338 -33.98279907 -0.05492676 -33.17706299 -0.05102539 C-30.70131673 -0.0389006 -28.2256922 -0.02026093 -25.75 0 C-22.47396163 0.026583 -19.19798045 0.04655912 -15.921875 0.0625 C-15.17186218 0.07079834 -14.42184937 0.07909668 -13.64910889 0.08764648 C-8.72712822 0.11094177 -4.7825365 -1.34892055 0 0 Z " fill="#E3E4E4" transform="translate(533,730)"/>
<path d="M0 0 C3.53611275 2.95878822 6.92083554 5.87591649 10.0625 9.25 C16.44989512 15.72256039 24.44035064 20.62532418 31.97265625 25.6640625 C41.21833473 31.87015819 49.76752247 38.49872205 58 46 C58.91652344 46.82113281 59.83304687 47.64226563 60.77734375 48.48828125 C70.16936042 57.33038015 78.71872286 69.02765289 81 82 C80.5859375 84.83984375 80.5859375 84.83984375 80 87 C77.24434777 84.50479051 75.46837085 81.70271875 73.5 78.5625 C69.9600128 73.14024349 66.00957535 68.47850164 61.50585938 63.83422852 C58 60.18890338 58 60.18890338 58 58 C57.01 57.67 56.02 57.34 55 57 C53.29345537 55.37418913 51.63083658 53.70174252 50 52 C41.69057015 43.84843496 32.58595822 37.21064068 23.109375 30.50146484 C15.23885277 24.8991834 7.65377924 18.98909962 0.27734375 12.75 C-1.96379498 10.83023356 -1.96379498 10.83023356 -5 10 C-4.67 8.68 -4.34 7.36 -4 6 C-3.01 6 -2.02 6 -1 6 C-0.34 5.34 0.32 4.68 1 4 C0.01 3.67 -0.98 3.34 -2 3 C-2 2.34 -2 1.68 -2 1 C-1.34 0.67 -0.68 0.34 0 0 Z " fill="#E4E6E6" transform="translate(417,502)"/>
<path d="M0 0 C0.76691666 -0.00570007 1.53383331 -0.01140015 2.32398987 -0.01727295 C3.94718037 -0.0267236 5.57039007 -0.03325719 7.19360352 -0.03710938 C9.67823654 -0.04682351 12.16204528 -0.07784846 14.64648438 -0.109375 C16.22265133 -0.11590427 17.79882421 -0.12115504 19.375 -0.125 C20.49073647 -0.1435202 20.49073647 -0.1435202 21.62901306 -0.16241455 C26.77037221 -0.14018294 26.77037221 -0.14018294 29.17333984 1.56591797 C30.65096756 3.80472761 31.53859095 6.05300942 32.44140625 8.578125 C32.78558594 9.51398437 33.12976563 10.44984375 33.484375 11.4140625 C34.24640104 14.17592337 34.48028629 16.35576715 34.25390625 19.203125 C32.28884032 21.16819093 29.27573699 20.33589706 26.66064453 20.34179688 C25.7220459 20.33728516 24.78344727 20.33277344 23.81640625 20.328125 C22.85460449 20.32619141 21.89280273 20.32425781 20.90185547 20.32226562 C9.01018383 20.25391177 -2.86775931 19.73826204 -14.74609375 19.203125 C-16.71212423 15.27106405 -14.06453358 10.19298877 -12.74609375 6.203125 C-9.56372257 -0.16161736 -6.69508516 0.03814889 0 0 Z " fill="#DFE0E0" transform="translate(498.74609375,691.796875)"/>
<path d="M0 0 C13.53 0 27.06 0 41 0 C39.98105018 4.07579927 38.39233377 7.47681166 36.5 11.1875 C36.14977783 11.87859863 35.79955566 12.56969727 35.4387207 13.28173828 C34.29796017 15.52400088 33.14913161 17.76201754 32 20 C31.60087402 20.7842334 31.20174805 21.5684668 30.79052734 22.37646484 C29.5985164 24.7140696 28.39493883 27.04533273 27.1875 29.375 C26.81496094 30.10614014 26.44242188 30.83728027 26.05859375 31.59057617 C24.29757599 34.95190288 23.21268463 36.85821025 20 39 C17.46199399 36.72660724 16.13958334 34.55457085 14.73046875 31.46484375 C14.31917725 30.57732422 13.90788574 29.68980469 13.48413086 28.77539062 C12.84229858 27.37063477 12.84229858 27.37063477 12.1875 25.9375 C9.13696635 19.36763377 6.09482812 12.97470041 2.05859375 6.9375 C1 5 1 5 0 0 Z " fill="#E9E9E9" transform="translate(488,758)"/>
<path d="M0 0 C9.67356967 8.79415425 16.02935991 19.89635879 17 33 C16.01 33 15.02 33 14 33 C12.53862625 30.94189864 11.26497693 28.92466451 10 26.75 C6.38110287 20.78153755 2.33004173 15.72076239 -2.54492188 10.73339844 C-6 7.17699113 -6 7.17699113 -6 5 C-6.99 4.67 -7.98 4.34 -9 4 C-7.68 3.34 -6.36 2.68 -5 2 C-4.71125 2.639375 -4.4225 3.27875 -4.125 3.9375 C-3.17176549 6.15206079 -3.17176549 6.15206079 -1 7 C-1 6.34 -1 5.68 -1 5 C-0.34 5 0.32 5 1 5 C0.67 3.35 0.34 1.7 0 0 Z " fill="#D9DBD8" transform="translate(481,555)"/>
<path d="M0 0 C0 3.76300503 -1.31501654 5.63003309 -3 9 C-4.07935638 11.975523 -5.05366752 14.97978996 -6 18 C-6.99 18 -7.98 18 -9 18 C-9.66 20.97 -10.32 23.94 -11 27 C-11.66 27 -12.32 27 -13 27 C-13 50.76 -13 74.52 -13 99 C-12.01 98.505 -12.01 98.505 -11 98 C-11.66 99.32 -12.32 100.64 -13 102 C-13.99 101.67 -14.98 101.34 -16 101 C-15.96173125 92.09738815 -15.90206649 83.19523798 -15.81609726 74.29295826 C-15.77681607 70.15793734 -15.74453386 66.0231232 -15.72900391 61.88793945 C-15.7137082 57.88706623 -15.6790393 53.88676228 -15.63169098 49.88614464 C-15.61700878 48.3702156 -15.60896667 46.85420523 -15.60811615 45.33820534 C-15.59394268 32.72657409 -13.26541567 21.74557663 -7.5 10.4375 C-6.9328125 9.30183594 -6.365625 8.16617187 -5.78125 6.99609375 C-4.10390623 4.1747721 -2.43153124 2.18091289 0 0 Z " fill="#BCDADA" transform="translate(532,498)"/>
<path d="M0 0 C0.26162099 5.35634543 -0.52289126 9.35396531 -2.375 14.375 C-2.81585937 15.59960938 -3.25671875 16.82421875 -3.7109375 18.0859375 C-5 21 -5 21 -7 22 C-7.33 20.68 -7.66 19.36 -8 18 C-9.32 18 -10.64 18 -12 18 C-13.66666667 18 -15.33333333 18 -17 18 C-15.51601598 12.81581898 -12.25425041 9.83995403 -8.5 6.1875 C-7.90574219 5.59001953 -7.31148437 4.99253906 -6.69921875 4.37695312 C-2.26724107 0 -2.26724107 0 0 0 Z " fill="#F1F1F2" transform="translate(603,564)"/>
<path d="M0 0 C0.66 0 1.32 0 2 0 C9.30018473 14.09883005 9.30018473 14.09883005 8.625 18.375 C8.41875 18.91125 8.2125 19.4475 8 20 C7.34 18.68 6.68 17.36 6 16 C5.67 16.66 5.34 17.32 5 18 C4.46375 18.45375 3.9275 18.9075 3.375 19.375 C2.92125 19.91125 2.4675 20.4475 2 21 C2.22757731 23.16299211 2.22757731 23.16299211 3 25 C2.01 25.33 1.02 25.66 0 26 C-1.20882096 28.00016466 -1.20882096 28.00016466 -2 30 C-2.66 30 -3.32 30 -4 30 C-3.20199736 23.49201728 -2.32833798 16.99587122 -1.4375 10.5 C-1.29892578 9.48679687 -1.16035156 8.47359375 -1.01757812 7.4296875 C-0.67879535 4.95306859 -0.33959338 2.47650787 0 0 Z " fill="#BDC4C9" transform="translate(596,398)"/>
<path d="M0 0 C1.59905707 3.19811415 0.0253335 5.69614762 -1 9 C-1.57976514 11.14513103 -2 12.78524544 -2 15 C-2.969375 15.12375 -3.93875 15.2475 -4.9375 15.375 C-5.948125 15.58125 -6.95875 15.7875 -8 16 C-8.33 16.66 -8.66 17.32 -9 18 C-9.66 18 -10.32 18 -11 18 C-10.34 19.65 -9.68 21.3 -9 23 C-9.721875 23.70125 -10.44375 24.4025 -11.1875 25.125 C-13.12872925 27.04435624 -14.83012515 29.02991567 -16.5 31.1875 C-18.98299616 33.98087068 -20.46519923 34.99005692 -24 36 C-22.41000492 31.2932532 -19.83094627 27.5868844 -17 23.5625 C-16.51740723 22.86890381 -16.03481445 22.17530762 -15.53759766 21.46069336 C-14.03190159 19.30223463 -12.51771834 17.15001954 -11 15 C-10.51241211 14.3090625 -10.02482422 13.618125 -9.52246094 12.90625 C-1.34913793 1.34913793 -1.34913793 1.34913793 0 0 Z " fill="#BDE1E6" transform="translate(497,248)"/>
<path d="M0 0 C3.47565519 2.01712132 5.70453512 4.11360536 7 8 C7.36070964 15.25928143 6.8830872 22.56171586 6.5 29.8125 C6.0832564 38.22028432 5.87069061 46.58052209 6 55 C5.67 55 5.34 55 5 55 C4.21792388 48.79304663 3.84022007 42.75293512 3.875 36.5 C3.87693359 35.6450293 3.87886719 34.79005859 3.88085938 33.90917969 C3.93620976 25.58509653 4.39790122 17.30036179 5 9 C4.01 8.67 3.02 8.34 2 8 C2 6.68 2 5.36 2 4 C-1.3 3.34 -4.6 2.68 -8 2 C-8.66 3.32 -9.32 4.64 -10 6 C-10.99 6.33 -11.98 6.66 -13 7 C-11.55813953 2.43410853 -11.55813953 2.43410853 -9.3125 0.6875 C-5.96239654 -0.3084767 -3.48465987 -0.4205624 0 0 Z " fill="#474D53" transform="translate(346,492)"/>
<path d="M0 0 C2.91409693 4.37114539 3.12997801 7.71339396 3.23706055 12.91430664 C3.26346115 14.10556656 3.28986176 15.29682648 3.31706238 16.52418518 C3.34004898 17.80655563 3.36303558 19.08892609 3.38671875 20.41015625 C3.41224319 21.72914413 3.43776764 23.04813202 3.46406555 24.40708923 C3.51694154 27.19525252 3.56588237 29.98345476 3.61254883 32.77172852 C3.67304068 36.34533041 3.74726604 39.91850432 3.82492352 43.49176884 C3.89632732 46.90191392 3.95310113 50.31226759 4.01171875 53.72265625 C4.04077805 55.00705093 4.06983734 56.29144562 4.09977722 57.61476135 C4.11672134 58.80286911 4.13366547 59.99097687 4.15112305 61.21508789 C4.17031296 62.26225479 4.18950287 63.30942169 4.20927429 64.38832092 C4 67 4 67 2 70 C-1.07921132 70.25660094 -3.21136993 70.39431504 -6 69 C-6.625 65.9375 -6.625 65.9375 -7 63 C-5 65 -5 65 -5 68 C-2.69 68 -0.38 68 2 68 C2 48.2 2 28.4 2 8 C1.34 8 0.68 8 0 8 C-1.09658936 4.71023192 -0.79953138 3.28696233 0 0 Z " fill="#939698" transform="translate(496,602)"/>
<path d="M0 0 C0.33 0 0.66 0 1 0 C2.6742813 6.56619207 3.29613626 12.53142352 3.265625 19.29296875 C3.26753845 20.24263016 3.2694519 21.19229156 3.27142334 22.17073059 C3.27277552 24.1632209 3.2691472 26.15572032 3.26074219 28.14819336 C3.24999296 31.18949152 3.26068888 34.23020388 3.2734375 37.27148438 C3.27211643 39.21614713 3.26955513 41.16080952 3.265625 43.10546875 C3.26967346 44.00871384 3.27372192 44.91195892 3.27789307 45.84257507 C3.24239597 50.63652642 2.85119724 54.50025248 1 59 C0.62875 59.94875 0.2575 60.8975 -0.125 61.875 C-0.41375 62.57625 -0.7025 63.2775 -1 64 C-2.20509664 60.38471008 -1.73976301 58.37252791 -1.125 54.625 C1.0034274 40.64640921 1.54105436 26.98935505 0.22265625 12.9140625 C-0.10650086 8.60614657 -0.08596194 4.31719952 0 0 Z " fill="#7A8287" transform="translate(663,500)"/>
<path d="M0 0 C3.55778921 3.55778921 3.95168196 8.64709495 4.125 13.5 C4.08375 14.325 4.0425 15.15 4 16 C1.81024227 12.71536341 1.00193437 9.79303725 0 6 C-3.47268606 11.28452226 -4.09232684 15.71481904 -4.31640625 21.95703125 C-4.35830078 23.06884766 -4.40019531 24.18066406 -4.44335938 25.32617188 C-4.50233398 27.0519043 -4.50233398 27.0519043 -4.5625 28.8125 C-4.60568359 29.98232422 -4.64886719 31.15214844 -4.69335938 32.35742188 C-4.79918279 35.23817031 -4.90126825 38.11900123 -5 41 C-4.34 41.33 -3.68 41.66 -3 42 C-3.33 43.98 -3.66 45.96 -4 48 C-4.33 48 -4.66 48 -5 48 C-7.71299533 32.79825755 -8.88351663 15.89540117 -1.3125 1.875 C-0.879375 1.25625 -0.44625 0.6375 0 0 Z " fill="#62686E" transform="translate(417,401)"/>
<path d="M0 0 C0.33 0 0.66 0 1 0 C1.87890625 6.15234375 1.87890625 6.15234375 2 8 C1.67 8.33 1.34 8.66 1 9 C0.92410852 11.13938073 0.91698826 13.28124689 0.9375 15.421875 C0.94128662 16.07770569 0.94507324 16.73353638 0.94897461 17.40924072 C0.96524772 20.21610312 0.99282894 23.02281991 1.02050781 25.82958984 C1.10262846 34.93417637 0.87343823 43.92638055 0 53 C-0.33 53 -0.66 53 -1 53 C-1.98265483 45.09692223 -2.19180553 37.27126528 -2.1875 29.3125 C-2.18814453 28.08112305 -2.18878906 26.84974609 -2.18945312 25.58105469 C-2.13905776 16.89701706 -1.62583375 8.53562721 0 0 Z " fill="#757A7D" transform="translate(332,499)"/>
<path d="M0 0 C4.88049925 3.9419417 9.0580583 8.11950075 13 13 C9.44219804 12.39009109 6.3171411 11.4216319 3 10 C2.01 11.485 2.01 11.485 1 13 C-0.98 12.01 -2.96 11.02 -5 10 C-4.67 8.68 -4.34 7.36 -4 6 C-3.01 6 -2.02 6 -1 6 C-0.34 5.34 0.32 4.68 1 4 C0.01 3.67 -0.98 3.34 -2 3 C-2 2.34 -2 1.68 -2 1 C-1.34 0.67 -0.68 0.34 0 0 Z " fill="#E7E7E7" transform="translate(417,502)"/>
<path d="M0 0 C0.33 0 0.66 0 1 0 C1.33 22.44 1.66 44.88 2 68 C2.99 67.505 2.99 67.505 4 67 C3.34 68.32 2.68 69.64 2 71 C1.01 70.67 0.02 70.34 -1 70 C-0.67 46.9 -0.34 23.8 0 0 Z " fill="#868B90" transform="translate(517,529)"/>
<path d="M0 0 C0.33 0.99 0.66 1.98 1 3 C2.87387216 3.80212628 2.87387216 3.80212628 5.0625 4.1875 C5.79597656 4.34605469 6.52945312 4.50460937 7.28515625 4.66796875 C7.85105469 4.77753906 8.41695313 4.88710938 9 5 C10.125 9.75 10.125 9.75 9 12 C6.9375 12.375 6.9375 12.375 4 12 C1.46427718 10.20822891 -0.77174488 8.15761879 -3 6 C-2.625 3.5625 -2.625 3.5625 -2 1 C-1.34 0.67 -0.68 0.34 0 0 Z " fill="#E9ECED" transform="translate(422,510)"/>
<path d="M0 0 C0.625 1.8125 0.625 1.8125 1 4 C0.01 5.485 0.01 5.485 -1 7 C-1.48866998 8.95467994 -1.97521769 10.91000551 -2.4375 12.87109375 C-3.6150382 17.32774873 -5.09787809 22.23599698 -9 25 C-9.99 25 -10.98 25 -12 25 C-10.48611133 19.97735894 -8.36904087 15.46903867 -6 10.8125 C-5.64421875 10.10158203 -5.2884375 9.39066406 -4.921875 8.65820312 C-3.39793609 5.63591383 -1.88290631 2.82435946 0 0 Z " fill="#BFDFE2" transform="translate(461,303)"/>
<path d="M0 0 C1.79275866 3.11910856 2.34290718 5.67682428 2.625 9.25 C2.69976562 10.14203125 2.77453125 11.0340625 2.8515625 11.953125 C2.90054687 12.62859375 2.94953125 13.3040625 3 14 C2.01 14.33 1.02 14.66 0 15 C-1.33929505 13.71451591 -2.67128643 12.42141845 -4 11.125 C-4.7425 10.40570312 -5.485 9.68640625 -6.25 8.9453125 C-8 7 -8 7 -8 5 C-6.865625 4.731875 -5.73125 4.46375 -4.5625 4.1875 C-3.386875 3.795625 -2.21125 3.40375 -1 3 C-0.67 2.01 -0.34 1.02 0 0 Z " fill="#D9DCDD" transform="translate(496,525)"/>
<path d="M0 0 C0.77403168 0.00141495 1.54806335 0.0028299 2.34555054 0.00428772 C4.82155192 0.00989222 7.29746338 0.02244542 9.7734375 0.03515625 C11.45051953 0.04017067 13.12760297 0.04473368 14.8046875 0.04882812 C18.91930556 0.0598631 23.03385628 0.07713071 27.1484375 0.09765625 C27.6434375 1.08765625 27.6434375 1.08765625 28.1484375 2.09765625 C23.21922875 2.29003416 18.28978589 2.46873749 13.35961914 2.63476562 C11.68240053 2.69317703 10.00530782 2.75532828 8.32836914 2.82128906 C5.91836471 2.91543543 3.50822801 2.99613757 1.09765625 3.07421875 C0.34755783 3.1064151 -0.40254059 3.13861145 -1.17536926 3.17178345 C-4.99336181 3.28172758 -6.58531735 3.27515301 -9.8515625 1.09765625 C-6.73202122 -0.46211439 -3.42196866 -0.02338501 0 0 Z " fill="#ACAFB1" transform="translate(498.8515625,691.90234375)"/>
<path d="M0 0 C1.59905707 3.19811415 0.0253335 5.69614762 -1 9 C-1.57976514 11.14513103 -2 12.78524544 -2 15 C-2.9075 15.0825 -3.815 15.165 -4.75 15.25 C-8.40077839 16.09248732 -9.63384583 17.17881618 -12 20 C-12 12.75305555 -4.69412082 5.26310516 0 0 Z " fill="#C2DDE0" transform="translate(497,248)"/>
<path d="M0 0 C0.33 0.66 0.66 1.32 1 2 C1.66 2 2.32 2 3 2 C3.4142838 7.07497657 2.76755626 9.64794492 0.0234375 13.890625 C-2.0916506 18.24996689 -2.40530318 23.23460048 -3 28 C-3.33 28 -3.66 28 -4 28 C-4.50010209 18.66476098 -2.95887654 8.87662963 0 0 Z " fill="#AEBFC0" transform="translate(443,344)"/>
<path d="M0 0 C0.495 0.99 0.495 0.99 1 2 C-16.16 2 -33.32 2 -51 2 C-46.47531991 -0.26234004 -43.0903383 -0.24040078 -38.18359375 -0.16015625 C-37.33072281 -0.15495468 -36.47785187 -0.14975311 -35.59913635 -0.14439392 C-32.87841637 -0.12660513 -30.15807551 -0.09543442 -27.4375 -0.0625 C-24.71339119 -0.03487212 -21.98933605 -0.01016479 -19.26515198 0.00868225 C-17.5712045 0.02092741 -15.87728547 0.03851944 -14.18345642 0.06199646 C-9.12866396 0.10499975 -4.87727009 -1.41184134 0 0 Z " fill="#474A4C" transform="translate(533,730)"/>
<path d="M0 0 C0.33 0 0.66 0 1 0 C1.01030746 0.68238235 1.02061493 1.36476471 1.03123474 2.06782532 C1.13923821 9.15656232 1.25384131 16.24517063 1.37231445 23.33374023 C1.41568304 25.98084832 1.45735668 28.62798472 1.49731445 31.27514648 C1.55497023 35.075445 1.61867844 38.87560068 1.68359375 42.67578125 C1.70030624 43.86335526 1.71701874 45.05092926 1.73423767 46.27449036 C1.75418289 47.37540512 1.77412811 48.47631989 1.79467773 49.6105957 C1.81022202 50.58100296 1.8257663 51.55141022 1.84178162 52.55122375 C1.90465129 55.13795675 1.90465129 55.13795675 3 58 C2.01 58.66 1.02 59.32 0 60 C0 40.2 0 20.4 0 0 Z " fill="#F8FAFE" transform="translate(518,538)"/>
<path d="M0 0 C0.33 0 0.66 0 1 0 C1.52112843 5.94086413 0.94890354 8.95763128 -2.61328125 13.75 C-4 15 -4 15 -7 15 C-7.33 16.32 -7.66 17.64 -8 19 C-8.66 19 -9.32 19 -10 19 C-8.62309544 14.25652774 -6.56160559 10.27474838 -3.9375 6.125 C-3.57333984 5.53203125 -3.20917969 4.9390625 -2.83398438 4.328125 C-1.9218371 2.86464287 -0.96486632 1.4292745 0 0 Z " fill="#96C1C5" transform="translate(472,284)"/>
<path d="M0 0 C0.99 2.97 1.98 5.94 3 9 C2.01 8.34 1.02 7.68 0 7 C-2.33944736 7.28730055 -4.6739143 7.61936779 -7 8 C-7.66 7.67 -8.32 7.34 -9 7 C-6.79922603 2.09058114 -5.62803596 0 0 0 Z " fill="#B3B8BF" transform="translate(513,234)"/>
<path d="M0 0 C0.33 0.99 0.66 1.98 1 3 C6.80238024 3.07401964 12.60448722 3.12853989 18.40722656 3.16479492 C20.38221013 3.17990462 22.35716004 3.20039328 24.33203125 3.22631836 C27.16675106 3.26260619 30.00102826 3.27970416 32.8359375 3.29296875 C33.72243988 3.30845261 34.60894226 3.32393646 35.52230835 3.33988953 C36.753358 3.34022942 36.753358 3.34022942 38.00927734 3.34057617 C38.73319672 3.34723801 39.45711609 3.35389984 40.20297241 3.36076355 C42.41971982 3.13589586 42.41971982 3.13589586 44 0 C44.495 2.475 44.495 2.475 45 5 C29.49 5 13.98 5 -2 5 C-1.34 3.35 -0.68 1.7 0 0 Z " fill="#F8FBFC" transform="translate(487,705)"/>
<path d="M0 0 C3.90181526 1.2654536 5.94481034 2.40341809 8 6 C9.03227188 9.09681564 9.11848051 10.59898903 8.1875 13.75 C7 16 7 16 5 17 C5 16.01 5 15.02 5 14 C5.66 14 6.32 14 7 14 C6.34 12.68 5.68 11.36 5 10 C4.01 10 3.02 10 2 10 C1.67 10.99 1.34 11.98 1 13 C0.67 12.01 0.34 11.02 0 10 C1.32 8.68 2.64 7.36 4 6 C2.74458443 3.48916886 1.49936512 3.12874554 -1 2 C-0.67 1.34 -0.34 0.68 0 0 Z " fill="#BEC2C5" transform="translate(458,687)"/>
<path d="M0 0 C0 0.99 0 1.98 0 3 C0.33 3.99 0.66 4.98 1 6 C-8.22551253 13.85193622 -8.22551253 13.85193622 -14 14 C-9.72706118 8.76564995 -5.18419194 4.32893185 0 0 Z " fill="#B6BCBF" transform="translate(615,648)"/>
<path d="M0 0 C1.1446875 0.3403125 1.1446875 0.3403125 2.3125 0.6875 C1.70551257 4.81501449 0.27439209 8.0196148 -1.6875 11.6875 C-2.3475 10.3675 -3.0075 9.0475 -3.6875 7.6875 C-4.6775 8.1825 -4.6775 8.1825 -5.6875 8.6875 C-6.04825949 3.27610759 -6.04825949 3.27610759 -4.5 0.75 C-2.6875 -0.3125 -2.6875 -0.3125 0 0 Z " fill="#C2C3C6" transform="translate(598.6875,574.3125)"/>
<path d="M0 0 C2.625 -0.1875 2.625 -0.1875 5 0 C5 1.32 5 2.64 5 4 C4.34 4 3.68 4 3 4 C2.67 5.65 2.34 7.3 2 9 C-0.31 9 -2.62 9 -5 9 C-3.46395304 5.85808576 -1.94268841 2.91403262 0 0 Z " fill="#ECEEF0" transform="translate(460,697)"/>
<path d="M0 0 C2.475 0.495 2.475 0.495 5 1 C5 1.66 5 2.32 5 3 C5.33 2.34 5.66 1.68 6 1 C6.66 1 7.32 1 8 1 C9.47075246 5.41225737 10.36884358 8.48281619 9 13 C6.31765765 10.57542028 4.63143275 7.92489603 2.8125 4.8125 C2.28269531 3.91144531 1.75289063 3.01039063 1.20703125 2.08203125 C0.80871094 1.39496094 0.41039062 0.70789063 0 0 Z " fill="#CBCCCA" transform="translate(488,576)"/>
<path d="M0 0 C13.53 0 27.06 0 41 0 C40 4 40 4 38 6 C38 4.35 38 2.7 38 1 C19.19 1.495 19.19 1.495 0 2 C0 1.34 0 0.68 0 0 Z " fill="#B2B4B5" transform="translate(488,758)"/>
<path d="M0 0 C2.32751591 1.46170036 4.01351461 3.06196547 6 5 C5.67 6.32 5.34 7.64 5 9 C4.01 8.67 3.02 8.34 2 8 C2 6.68 2 5.36 2 4 C-1.3 3.34 -4.6 2.68 -8 2 C-8.66 3.32 -9.32 4.64 -10 6 C-10.99 6.33 -11.98 6.66 -13 7 C-11.55813953 2.43410853 -11.55813953 2.43410853 -9.3125 0.6875 C-5.96239654 -0.3084767 -3.48465987 -0.4205624 0 0 Z " fill="#B6BABE" transform="translate(346,492)"/>
<path d="M0 0 C0 0.66 0 1.32 0 2 C1.32 2 2.64 2 4 2 C4.33 3.65 4.66 5.3 5 7 C4.34 7 3.68 7 3 7 C3 7.66 3 8.32 3 9 C1.68 8.34 0.36 7.68 -1 7 C-1 6.01 -1 5.02 -1 4 C-2.32 4.33 -3.64 4.66 -5 5 C-5 3.68 -5 2.36 -5 1 C-2 0 -2 0 0 0 Z " fill="#F4F5F4" transform="translate(477,553)"/>
<path d="M0 0 C3.36591866 1.44253657 5.51047079 3.33264727 8 6 C6.02 6.66 4.04 7.32 2 8 C2.33 8.99 2.66 9.98 3 11 C0.11562221 9.70700306 -1.87219421 8.34058637 -4 6 C-2.68 6 -1.36 6 0 6 C0 4.02 0 2.04 0 0 Z " fill="#D6D9DA" transform="translate(431,516)"/>
<path d="M0 0 C1.06517032 3.61557813 0.75606317 4.68299179 -1 8 C-1.061875 9.010625 -1.12375 10.02125 -1.1875 11.0625 C-2 14 -2 14 -3.6171875 15.05078125 C-5.37426995 15.79524791 -7.186367 16.40644738 -9 17 C-7.21873667 13.3655031 -5.29802134 9.81115063 -3.375 6.25 C-2.88773438 5.34701172 -2.88773438 5.34701172 -2.390625 4.42578125 C-1.59429415 2.95022703 -0.79722161 1.47507314 0 0 Z " fill="#A4BEBF" transform="translate(642,610)"/>
<path d="M0 0 C0.33 0.99 0.66 1.98 1 3 C1.66 2.67 2.32 2.34 3 2 C3 3.32 3 4.64 3 6 C2.34 6 1.68 6 1 6 C0.67 6.66 0.34 7.32 0 8 C-1.32604107 9.23913352 -2.68453046 10.44388326 -4.0625 11.625 C-4.79597656 12.25664062 -5.52945313 12.88828125 -6.28515625 13.5390625 C-6.85105469 14.02117187 -7.41695312 14.50328125 -8 15 C-8.66 14.67 -9.32 14.34 -10 14 C-9.16855469 12.86111328 -9.16855469 12.86111328 -8.3203125 11.69921875 C-7.59585938 10.70535156 -6.87140625 9.71148437 -6.125 8.6875 C-5.40570312 7.70136719 -4.68640625 6.71523438 -3.9453125 5.69921875 C-2.5944065 3.82476885 -1.28164671 1.92247007 0 0 Z " fill="#B3C7CB" transform="translate(581,447)"/>
<path d="M0 0 C0.66 0.33 1.32 0.66 2 1 C2 1.66 2 2.32 2 3 C1.34 3 0.68 3 0 3 C-0.33 3.99 -0.66 4.98 -1 6 C-2.134375 6.12375 -3.26875 6.2475 -4.4375 6.375 C-6.2009375 6.684375 -6.2009375 6.684375 -8 7 C-8.33 7.66 -8.66 8.32 -9 9 C-10.32 8.34 -11.64 7.68 -13 7 C-10.88002166 5.80266012 -8.75486324 4.61701287 -6.625 3.4375 C-6.02171875 3.09525391 -5.4184375 2.75300781 -4.796875 2.40039062 C-3.23021759 1.53872905 -1.61709138 0.76281817 0 0 Z " fill="#A6AAAB" transform="translate(571,680)"/>
<path d="M0 0 C0.25 6.625 0.25 6.625 -2 10 C-2.66 8.68 -3.32 7.36 -4 6 C-4.45890625 6.40992188 -4.9178125 6.81984375 -5.390625 7.2421875 C-6.00421875 7.78101563 -6.6178125 8.31984375 -7.25 8.875 C-8.15492188 9.67550781 -8.15492188 9.67550781 -9.078125 10.4921875 C-10.97418746 11.9797487 -12.81290005 13.00322436 -15 14 C-3.28571429 0 -3.28571429 0 0 0 Z " fill="#6E757A" transform="translate(603,564)"/>
<path d="M0 0 C0.99 0 1.98 0 3 0 C2.8125 3.25 2.8125 3.25 2 7 C0.37373596 8.38232443 -1.2925002 9.71937515 -3 11 C-3.87943404 13.63460948 -3.87943404 13.63460948 -4 16 C-4.33 16 -4.66 16 -5 16 C-5.18284008 11.97751827 -4.98043185 9.49487974 -3 6 C-2.63215869 4.6757713 -2.28797019 3.34386088 -2 2 C-1.34 2 -0.68 2 0 2 C0 1.34 0 0.68 0 0 Z " fill="#E5FBFB" transform="translate(645,608)"/>
<path d="M0 0 C1.47931594 3.94153307 0.56772656 7.1618193 -0.3125 11.1875 C-0.57675781 12.43917969 -0.84101562 13.69085937 -1.11328125 14.98046875 C-1.40589844 15.97691406 -1.69851563 16.97335937 -2 18 C-2.66 18.33 -3.32 18.66 -4 19 C-4.68472665 20.88764903 -4.68472665 20.88764903 -5.125 23.0625 C-5.29257812 23.79597656 -5.46015625 24.52945313 -5.6328125 25.28515625 C-5.75398437 25.85105469 -5.87515625 26.41695312 -6 27 C-6.66 26.67 -7.32 26.34 -8 26 C-5.74603165 17.185701 -2.9375631 8.60369272 0 0 Z " fill="#87989D" transform="translate(660,566)"/>
<path d="M0 0 C2.31 0.66 4.62 1.32 7 2 C6.06725891 3.12894876 5.12859878 4.25300876 4.1875 5.375 C3.66542969 6.00148438 3.14335938 6.62796875 2.60546875 7.2734375 C1 9 1 9 -2 11 C-2 8.69 -2 6.38 -2 4 C-1.01 3.67 -0.02 3.34 1 3 C0.67 2.01 0.34 1.02 0 0 Z " fill="#C3C8CA" transform="translate(525,465)"/>
<path d="M0 0 C2.87770097 2.45596893 3.96687126 4.90889595 5.25 8.4375 C5.60578125 9.38496094 5.9615625 10.33242188 6.328125 11.30859375 C7.01466386 14.05874071 6.96622898 15.38003295 6 18 C4.50178941 14.62902617 4 12.79557881 4 9 C3.34 9 2.68 9 2 9 C1.67 9.66 1.34 10.32 1 11 C0 10 0 10 -0.09765625 7.71484375 C-0.08605469 6.79832031 -0.07445312 5.88179688 -0.0625 4.9375 C-0.05347656 4.01839844 -0.04445313 3.09929687 -0.03515625 2.15234375 C-0.02355469 1.44207031 -0.01195312 0.73179687 0 0 Z " fill="#787F85" transform="translate(598,400)"/>
<path d="M0 0 C0.66 0.33 1.32 0.66 2 1 C1.91621094 1.59167969 1.83242188 2.18335938 1.74609375 2.79296875 C1.19110576 7.09939457 0.76773348 10.75552644 2 15 C-1.875 13.25 -1.875 13.25 -3 11 C-3.41527201 6.32818984 -2.69993991 3.82491487 0 0 Z " fill="#8D9093" transform="translate(553,690)"/>
<path d="M0 0 C3 1 3 1 4.1875 3.0625 C4.455625 3.701875 4.72375 4.34125 5 5 C4.01 5.99 3.02 6.98 2 8 C0.0625 7.25 0.0625 7.25 -2 6 C-2.75 3.875 -2.75 3.875 -3 2 C-2.01 1.34 -1.02 0.68 0 0 Z " fill="#EAEBEA" transform="translate(436,522)"/>
<path d="M0 0 C4.455 0.99 4.455 0.99 9 2 C8.67 3.32 8.34 4.64 8 6 C6.3125 6.75 6.3125 6.75 4 7 C1.25 5.0625 1.25 5.0625 -1 3 C-0.67 2.01 -0.34 1.02 0 0 Z " fill="#E0DEDF" transform="translate(462,507)"/>
<path d="M0 0 C0 0.99 0 1.98 0 3 C-1 4 -2 5 -3 6 C-3.433125 7.299375 -3.433125 7.299375 -3.875 8.625 C-4.431875 9.800625 -4.431875 9.800625 -5 11 C-7.375 11.6875 -7.375 11.6875 -10 12 C-12.23408113 12.99083967 -12.23408113 12.99083967 -14 14 C-11.03750349 9.92656729 -7.61640648 6.79433834 -3.8046875 3.55078125 C-1.92288746 1.97318991 -1.92288746 1.97318991 0 0 Z " fill="#98A5AD" transform="translate(568,464)"/>
<path d="M0 0 C2 1 2 1 2 1 Z M-2 1 C-1.34 1 -0.68 1 0 1 C-0.60698743 5.12751449 -2.03810791 8.3321148 -4 12 C-4.66 11.34 -5.32 10.68 -6 10 C-6.66 9.67 -7.32 9.34 -8 9 C-7.04956626 7.66102417 -6.08940853 6.32894573 -5.125 5 C-4.59132813 4.2575 -4.05765625 3.515 -3.5078125 2.75 C-3.01023437 2.1725 -2.51265625 1.595 -2 1 Z " fill="#C6D7D8" transform="translate(634,626)"/>
<path d="M0 0 C0.99 0 1.98 0 3 0 C3 3 3 3 1.25 5.04296875 C0.5075 5.75066406 -0.235 6.45835937 -1 7.1875 C-1.7425 7.90292969 -2.485 8.61835937 -3.25 9.35546875 C-4.11625 10.16951172 -4.11625 10.16951172 -5 11 C-5.66 10.67 -6.32 10.34 -7 10 C-6.21718695 8.66144944 -5.42348123 7.32926356 -4.625 6 C-4.18414063 5.2575 -3.74328125 4.515 -3.2890625 3.75 C-2.86367188 3.1725 -2.43828125 2.595 -2 2 C-1.34 2 -0.68 2 0 2 C0 1.34 0 0.68 0 0 Z " fill="#959A9A" transform="translate(585,544)"/>
<path d="M0 0 C0.66 0.66 1.32 1.32 2 2 C1.34 2 0.68 2 0 2 C0 1.34 0 0.68 0 0 Z M-2.875 1.875 C-1.92625 1.91625 -0.9775 1.9575 0 2 C-0.33 4.31 -0.66 6.62 -1 9 C-3.88437779 7.70700306 -5.87219421 6.34058637 -8 4 C-6 2 -6 2 -2.875 1.875 Z " fill="#DDDDDE" transform="translate(453,531)"/>
<path d="M0 0 C2.64 0.33 5.28 0.66 8 1 C7.34 2.32 6.68 3.64 6 5 C5.34 5 4.68 5 4 5 C4 5.66 4 6.32 4 7 C2.02 7.99 2.02 7.99 0 9 C-0.33 8.34 -0.66 7.68 -1 7 C-0.34 7 0.32 7 1 7 C0.67 4.69 0.34 2.38 0 0 Z " fill="#DADCDD" transform="translate(532,458)"/>
<path d="M0 0 C0.33 0 0.66 0 1 0 C1 1.98 1 3.96 1 6 C2.32 5.67 3.64 5.34 5 5 C4.67 6.32 4.34 7.64 4 9 C3.34 9 2.68 9 2 9 C1.34 10.32 0.68 11.64 0 13 C-0.66 13 -1.32 13 -2 13 C-1.48041715 8.62065881 -0.94324258 4.31196609 0 0 Z " fill="#B1B6BC" transform="translate(594,415)"/>
<path d="M0 0 C0.33 0.66 0.66 1.32 1 2 C0.01 2.495 0.01 2.495 -1 3 C-1.33 3.99 -1.66 4.98 -2 6 C-5.10462326 9.62206046 -7.16592748 11.58565093 -12 12 C-12 10 -12 10 -10.390625 8.37890625 C-9.68421875 7.77949219 -8.9778125 7.18007813 -8.25 6.5625 C-7.20585938 5.66724609 -7.20585938 5.66724609 -6.140625 4.75390625 C-4.13326411 3.10918902 -2.08929688 1.53873892 0 0 Z " fill="#AEBCC9" transform="translate(553,478)"/>
<path d="M0 0 C1.65 0 3.3 0 5 0 C6.25541557 3.76624671 5.37061958 5.37188934 4 9 C0 4.5 0 4.5 0 0 Z " fill="#CDCFCF" transform="translate(489,759)"/>
<path d="M0 0 C0.66 0 1.32 0 2 0 C0.44499019 3.81684226 -2.03595495 6.19195732 -5 9 C-7 6 -7 6 -6.625 3.8125 C-6.41875 3.214375 -6.2125 2.61625 -6 2 C-4.68 2 -3.36 2 -2 2 C-1.34 1.34 -0.68 0.68 0 0 Z " fill="#D6D5D9" transform="translate(526,587)"/>
<path d="M0 0 C1.3778771 3.13153887 0.90076044 4.28779473 -0.25 7.625 C-2 11 -2 11 -5 13 C-6.19232613 15.05003955 -6.19232613 15.05003955 -7 17 C-7.33 16.34 -7.66 15.68 -8 15 C-6.94768851 12.5749805 -5.84614846 10.27492731 -4.625 7.9375 C-4.295 7.28716797 -3.965 6.63683594 -3.625 5.96679688 C-1.16836021 1.16836021 -1.16836021 1.16836021 0 0 Z " fill="#7DAAB2" transform="translate(461,303)"/>
<path d="M0 0 C0.99 0.33 1.98 0.66 3 1 C3.75 2.9375 3.75 2.9375 4 5 C3.67 5.66 3.34 6.32 3 7 C0.9375 7.625 0.9375 7.625 -1 8 C-2.2077558 4.37673261 -1.54311128 3.35853631 0 0 Z " fill="#E9FAFC" transform="translate(498,248)"/>
<path d="M0 0 C2.31 0.33 4.62 0.66 7 1 C7.33 1.99 7.66 2.98 8 4 C5.35261084 5.4606285 4.10551666 6 1 6 C0.67 4.02 0.34 2.04 0 0 Z " fill="#F7F7FC" transform="translate(504,241)"/>
<path d="M0 0 C0.33 0.66 0.66 1.32 1 2 C-5.93 2 -12.86 2 -20 2 C-20 1.67 -20 1.34 -20 1 C-19.16855469 0.93941406 -18.33710937 0.87882813 -17.48046875 0.81640625 C-15.85044922 0.69072266 -15.85044922 0.69072266 -14.1875 0.5625 C-13.10855469 0.48128906 -12.02960937 0.40007813 -10.91796875 0.31640625 C-2.18007968 -0.6310757 -2.18007968 -0.6310757 0 0 Z " fill="#2F3334" transform="translate(533,730)"/>
<path d="M0 0 C0.99 0.33 1.98 0.66 3 1 C2.67 3.31 2.34 5.62 2 8 C1.34 8 0.68 8 0 8 C-0.33 8.66 -0.66 9.32 -1 10 C-2.4606285 7.35261084 -3 6.10551666 -3 3 C-1.5 1.3125 -1.5 1.3125 0 0 Z " fill="#CFD5D6" transform="translate(533,614)"/>
<path d="M0 0 C1.32 0.66 2.64 1.32 4 2 C4 2.99 4 3.98 4 5 C1.525 4.01 1.525 4.01 -1 3 C-0.67 2.01 -0.34 1.02 0 0 Z M-6 4 C-3.525 4.495 -3.525 4.495 -1 5 C-1 6.32 -1 7.64 -1 9 C-2.9375 8.1875 -2.9375 8.1875 -5 7 C-5.33 6.01 -5.66 5.02 -6 4 Z " fill="#D1D3D4" transform="translate(463,539)"/>
<path d="M0 0 C1.485 0.99 1.485 0.99 3 2 C3.28527337 5.85119054 3.18082522 9.30992118 2 13 C1.34 13 0.68 13 0 13 C-0.33 11.68 -0.66 10.36 -1 9 C-0.34 9 0.32 9 1 9 C1 8.34 1 7.68 1 7 C0.34 7 -0.32 7 -1 7 C-0.67 4.69 -0.34 2.38 0 0 Z " fill="#F6F9FB" transform="translate(349,499)"/>
<path d="M0 0 C2.1875 0.3125 2.1875 0.3125 4 1 C4 2.98 4 4.96 4 7 C3.01 7.33 2.02 7.66 1 8 C-0.32 6.35 -1.64 4.7 -3 3 C-1.75 1.4375 -1.75 1.4375 0 0 Z " fill="#E7E8E7" transform="translate(493,470)"/>
<path d="M0 0 C0.66 0.33 1.32 0.66 2 1 C0.85845641 2.83600745 -0.28834316 4.66874805 -1.4375 6.5 C-2.07558594 7.5209375 -2.71367187 8.541875 -3.37109375 9.59375 C-3.90863281 10.3878125 -4.44617188 11.181875 -5 12 C-5.33 12 -5.66 12 -6 12 C-6.125 8.625 -6.125 8.625 -6 5 C-5.34 4.34 -4.68 3.68 -4 3 C-3.01 3 -2.02 3 -1 3 C-0.67 2.01 -0.34 1.02 0 0 Z " fill="#D9FAFB" transform="translate(479,279)"/>
<path d="M0 0 C0.33 0 0.66 0 1 0 C1.50377768 2.26999825 2.00290019 4.54103003 2.5 6.8125 C2.7784375 8.07707031 3.056875 9.34164062 3.34375 10.64453125 C4 14 4 14 4 17 C3.01 16.67 2.02 16.34 1 16 C1.33 15.01 1.66 14.02 2 13 C1.34 13 0.68 13 0 13 C0.33 11.35 0.66 9.7 1 8 C0.34 8 -0.32 8 -1 8 C-0.67 5.36 -0.34 2.72 0 0 Z " fill="#808487" transform="translate(353,554)"/>
<path d="M0 0 C1.32 0 2.64 0 4 0 C3.45861782 3.78967525 1.84099612 5.51412839 -1 8 C-1.33 8 -1.66 8 -2 8 C-1.125 1.125 -1.125 1.125 0 0 Z " fill="#DCE0E2" transform="translate(556,688)"/>
<path d="M0 0 C0.66 0 1.32 0 2 0 C0.68139111 4.61513112 -1.21355437 8.09897612 -4 12 C-4.6875 10.375 -4.6875 10.375 -5 8 C-3.65194009 4.79033355 -2.46598569 2.46598569 0 0 Z " fill="#C7C9CB" transform="translate(564,428)"/>
<path d="M0 0 C2.72426311 2.35277269 3.8141763 4.62496331 5 8 C2.69 7.67 0.38 7.34 -2 7 C-2.33 6.01 -2.66 5.02 -3 4 C-2.67 3.34 -2.34 2.68 -2 2 C-1.34 2 -0.68 2 0 2 C0 1.34 0 0.68 0 0 Z " fill="#B7B9BB" transform="translate(548,294)"/>
<path d="M0 0 C1.98 0.99 1.98 0.99 4 2 C4 2.66 4 3.32 4 4 C4.9590625 4.433125 4.9590625 4.433125 5.9375 4.875 C8 6 8 6 9 8 C6.36 8 3.72 8 1 8 C0.67 5.36 0.34 2.72 0 0 Z " fill="#B6B9BC" transform="translate(463,480)"/>
<path d="M0 0 C3.55778921 3.55778921 3.95168196 8.64709495 4.125 13.5 C4.08375 14.325 4.0425 15.15 4 16 C1.00835856 11.51253784 -0.21768229 6.31976044 -1 1 C-0.67 0.67 -0.34 0.34 0 0 Z " fill="#9CA2A5" transform="translate(417,401)"/>
<path d="M0 0 C0.33 0 0.66 0 1 0 C1.33 2.31 1.66 4.62 2 7 C1.01 7.33 0.02 7.66 -1 8 C-2.20882096 10.00016466 -2.20882096 10.00016466 -3 12 C-3.66 12 -4.32 12 -5 12 C-3.68938409 7.76570244 -2.05643741 3.92592596 0 0 Z " fill="#93A5AD" transform="translate(651,592)"/>
<path d="M0 0 C0.99 0 1.98 0 3 0 C3 1.98 3 3.96 3 6 C1 6 -1 6 -3 6 C-2.42655063 3.13275314 -2.1385485 2.1385485 0 0 Z " fill="#E7E9EB" transform="translate(598,569)"/>
<path d="M0 0 C2.475 0.495 2.475 0.495 5 1 C5 1.66 5 2.32 5 3 C6.32 2.67 7.64 2.34 9 2 C7.35 3.65 5.7 5.3 4 7 C0 2.25 0 2.25 0 0 Z " fill="#BFC2C4" transform="translate(545,625)"/>
<path d="M0 0 C1.98 0.99 1.98 0.99 4 2 C3.67 2.99 3.34 3.98 3 5 C4.32 4.67 5.64 4.34 7 4 C7.33 4.99 7.66 5.98 8 7 C7.01 7 6.02 7 5 7 C4.67 7.99 4.34 8.98 4 10 C3.32845067 8.71086513 2.66291141 7.41859796 2 6.125 C1.62875 5.40570312 1.2575 4.68640625 0.875 3.9453125 C0 2 0 2 0 0 Z " fill="#AFB2B4" transform="translate(350,611)"/>
<path d="M0 0 C2.18994248 3.28491373 2.35277339 4.83095639 2.625 8.6875 C2.69976563 9.68136719 2.77453125 10.67523438 2.8515625 11.69921875 C2.92503906 12.83810547 2.92503906 12.83810547 3 14 C1.68 13.34 0.36 12.68 -1 12 C-0.73958333 10.046875 -0.47916667 8.09375 -0.21875 6.140625 C0.06777357 3.69541605 0.06777357 3.69541605 0 0 Z " fill="#AAADB2" transform="translate(573,347)"/>
<path d="M0 0 C0.33 0.66 0.66 1.32 1 2 C-0.78150459 6.65170644 -2.51851506 8.81981814 -7 11 C-5.5140084 6.40693504 -3.14985318 3.56430755 0 0 Z " fill="#A6C1C6" transform="translate(497,248)"/>
<path d="M0 0 C-0.33 1.65 -0.66 3.3 -1 5 C0.32 4.67 1.64 4.34 3 4 C2.67 4.99 2.34 5.98 2 7 C-1.77545388 5.90931332 -4.47043472 5.0916909 -7 2 C-2.25 0 -2.25 0 0 0 Z " fill="#B2B5B6" transform="translate(429,689)"/>
<path d="M0 0 C1.65 0 3.3 0 5 0 C5 0.66 5 1.32 5 2 C5.66 2.33 6.32 2.66 7 3 C4.69 4.32 2.38 5.64 0 7 C1 4 1 4 2 2 C1.34 2 0.68 2 0 2 C0 1.34 0 0.68 0 0 Z " fill="#BCC0C1" transform="translate(593,685)"/>
<path d="M0 0 C0.99 0.33 1.98 0.66 3 1 C2.79375 1.598125 2.5875 2.19625 2.375 2.8125 C1.69328085 5.28450846 1.69328085 5.28450846 4 8 C0.18315774 6.44499019 -2.19195732 3.96404505 -5 1 C-3.68 1 -2.36 1 -1 1 C-0.67 0.67 -0.34 0.34 0 0 Z " fill="#98989A" transform="translate(445,609)"/>
<path d="M0 0 C4.50802601 1.25805377 7.4912812 2.90407165 11 6 C10.01 6.33 9.02 6.66 8 7 C8 6.34 8 5.68 8 5 C7.05125 4.9175 6.1025 4.835 5.125 4.75 C2 4 2 4 0.625 1.9375 C0.41875 1.298125 0.2125 0.65875 0 0 Z " fill="#A5A6A9" transform="translate(430,673)"/>
<path d="M0 0 C-0.75 6.75 -0.75 6.75 -3 9 C-3.66 6.69 -4.32 4.38 -5 2 C-2 0 -2 0 0 0 Z " fill="#BABEC1" transform="translate(670,600)"/>
<path d="M0 0 C0.33 0 0.66 0 1 0 C1.87890625 6.15234375 1.87890625 6.15234375 2 8 C1.67 8.33 1.34 8.66 1 9 C0.76712992 10.68183948 0.58735834 12.3712416 0.4375 14.0625 C0.35371094 14.98160156 0.26992188 15.90070312 0.18359375 16.84765625 C0.12300781 17.55792969 0.06242187 18.26820313 0 19 C-0.33 19 -0.66 19 -1 19 C-1.02714735 16.77090129 -1.04646254 14.54170633 -1.0625 12.3125 C-1.07990234 10.45044922 -1.07990234 10.45044922 -1.09765625 8.55078125 C-1.01478673 5.53764546 -0.70839449 2.91724661 0 0 Z " fill="#7F8488" transform="translate(332,499)"/>
<path d="M0 0 C1.32 0.33 2.64 0.66 4 1 C3.67 2.32 3.34 3.64 3 5 C3.99 5.33 4.98 5.66 6 6 C5.01 6.99 4.02 7.98 3 9 C0 2.25 0 2.25 0 0 Z " fill="#F4F7F7" transform="translate(405,491)"/>
<path d="M0 0 C0.66 0.99 1.32 1.98 2 3 C1.21625 3.433125 0.4325 3.86625 -0.375 4.3125 C-3.21698375 5.89220247 -3.21698375 5.89220247 -5 9 C-5.99 8.67 -6.98 8.34 -8 8 C-7.67 7.34 -7.34 6.68 -7 6 C-6.34 6 -5.68 6 -5 6 C-5 5.34 -5 4.68 -5 4 C-3.37373596 2.61767557 -1.7074998 1.28062485 0 0 Z " fill="#DCE7ED" transform="translate(559,474)"/>
<path d="M0 0 C0.33 0.66 0.66 1.32 1 2 C1.66 2 2.32 2 3 2 C1.84414715 5.91211733 0.64465038 8.8745041 -2 12 C-1.85831863 10.56208484 -1.71148957 9.1246763 -1.5625 7.6875 C-1.48128906 6.88699219 -1.40007812 6.08648437 -1.31640625 5.26171875 C-1 3 -1 3 0 0 Z " fill="#99AEB0" transform="translate(443,344)"/>
<path d="M0 0 C0.66 0.99 1.32 1.98 2 3 C1.34 3 0.68 3 0 3 C0.226875 3.556875 0.45375 4.11375 0.6875 4.6875 C1.12941904 7.95770092 -0.16001718 9.34224703 -2 12 C-2.66 12.99 -3.32 13.98 -4 15 C-3.43179252 9.54520815 -2.05362055 5.08940744 0 0 Z " fill="#ACB1B4" transform="translate(523,630)"/>
<path d="M0 0 C0 0.33 0 0.66 0 1 C-1.27875 1.0825 -2.5575 1.165 -3.875 1.25 C-6.0609751 1.46239243 -6.0609751 1.46239243 -8 2 C-9.3762794 3.91764174 -9.3762794 3.91764174 -10 6 C-10.99 6.33 -11.98 6.66 -13 7 C-11.55813953 2.43410853 -11.55813953 2.43410853 -9.3125 0.6875 C-6.16643337 -0.2478171 -3.26075491 -0.12541365 0 0 Z " fill="#6F7479" transform="translate(346,492)"/>
<path d="M0 0 C1 2 1 2 0.4375 4.0625 C-1 6 -1 6 -4.125 6.75 C-5.548125 6.87375 -5.548125 6.87375 -7 7 C-4.78071806 4.09197539 -3.07030857 2.04687238 0 0 Z " fill="#ACCACD" transform="translate(540,490)"/>
<path d="M0 0 C0.99 0.99 1.98 1.98 3 3 C2.01 3.33 1.02 3.66 0 4 C1.32 5.65 2.64 7.3 4 9 C0.2047869 7.50902342 -1.61042731 5.24299151 -4 2 C-2.68 1.34 -1.36 0.68 0 0 Z " fill="#9FA1A1" transform="translate(486,464)"/>
<path d="M0 0 C2.625 0.375 2.625 0.375 5 1 C4.67 2.98 4.34 4.96 4 7 C2.02 5.35 0.04 3.7 -2 2 C-1.34 1.34 -0.68 0.68 0 0 Z " fill="#B5B7B8" transform="translate(471,633)"/>
<path d="M0 0 C2.95409701 1.37154504 5.44008376 2.98863724 8 5 C6.35 5.33 4.7 5.66 3 6 C1.68 4.35 0.36 2.7 -1 1 C-0.67 0.67 -0.34 0.34 0 0 Z " fill="#D7D9DA" transform="translate(439,522)"/>
<path d="M0 0 C2.31 1.98 4.62 3.96 7 6 C5.68 6.33 4.36 6.66 3 7 C2.01 6.34 1.02 5.68 0 5 C-0.1875 2.375 -0.1875 2.375 0 0 Z " fill="#CCD1D3" transform="translate(423,508)"/>
<path d="M0 0 C1 2 1 2 0.22265625 4.6015625 C-0.16019531 5.59929687 -0.54304688 6.59703125 -0.9375 7.625 C-1.50791016 9.12933594 -1.50791016 9.12933594 -2.08984375 10.6640625 C-2.39019531 11.43492187 -2.69054687 12.20578125 -3 13 C-3.33 13 -3.66 13 -4 13 C-4.45732667 7.28341664 -3.52273754 4.51350747 0 0 Z " fill="#F0FAFB" transform="translate(445,354)"/>
<path d="M0 0 C0.99 0.33 1.98 0.66 3 1 C1.25 6.75 1.25 6.75 -1 9 C-1.625 6.1875 -1.625 6.1875 -2 3 C-1.34 2.01 -0.68 1.02 0 0 Z " fill="#A6AAAE" transform="translate(517,775)"/>
<path d="M0 0 C0 3.90838866 -1.50567876 5.11594107 -4 8 C-5.32 7.67 -6.64 7.34 -8 7 C-5.36 4.69 -2.72 2.38 0 0 Z " fill="#A7ACAD" transform="translate(543,604)"/>
<path d="M0 0 C0.99 0.33 1.98 0.66 3 1 C3.75 2.9375 3.75 2.9375 4 5 C3.67 5.66 3.34 6.32 3 7 C2.01 6.67 1.02 6.34 0 6 C-0.38218767 4.34385343 -0.71395102 2.67542976 -1 1 C-0.67 0.67 -0.34 0.34 0 0 Z " fill="#F1F0EA" transform="translate(487,569)"/>
<path d="M0 0 C3.36591866 1.44253657 5.51047079 3.33264727 8 6 C5.6875 6.25 5.6875 6.25 3 6 C1.02389614 3.95575462 0 2.8823175 0 0 Z " fill="#C1C7C6" transform="translate(438,537)"/>
<path d="M0 0 C0.33 0 0.66 0 1 0 C3.48063781 9.41002278 3.48063781 9.41002278 2 14 C0.09391902 10.78817851 -0.22266247 8.46117397 -0.125 4.75 C-0.09792969 3.41195313 -0.09792969 3.41195313 -0.0703125 2.046875 C-0.04710937 1.37140625 -0.02390625 0.6959375 0 0 Z " fill="#7A7F82" transform="translate(663,500)"/>
<path d="M0 0 C-0.33 0.99 -0.66 1.98 -1 3 C-1.99 3.33 -2.98 3.66 -4 4 C-4.99 2.68 -5.98 1.36 -7 0 C-4.3333581 -1.33332095 -2.83319697 -0.67102033 0 0 Z " fill="#C0C1C4" transform="translate(384,653)"/>
<path d="M0 0 C1.5 1.1875 1.5 1.1875 3 3 C3.1875 5.6875 3.1875 5.6875 3 8 C1.02 6.35 -0.96 4.7 -3 3 C-2.01 2.01 -1.02 1.02 0 0 Z " fill="#B8BBBC" transform="translate(435,600)"/>
<path d="M0 0 C0.33 2.31 0.66 4.62 1 7 C0.34 7 -0.32 7 -1 7 C-1.33 7.66 -1.66 8.32 -2 9 C-2.66 7.02 -3.32 5.04 -4 3 C-1.125 0 -1.125 0 0 0 Z " fill="#F0F1F2" transform="translate(348,593)"/>
<path d="M0 0 C0.66 0.99 1.32 1.98 2 3 C-3.75 7 -3.75 7 -6 7 C-5.67 6.01 -5.34 5.02 -5 4 C-4.34 4 -3.68 4 -3 4 C-3 3.34 -3 2.68 -3 2 C-2.01 2 -1.02 2 0 2 C0 1.34 0 0.68 0 0 Z " fill="#B8BABB" transform="translate(566,561)"/>
<path d="M0 0 C2.64 0 5.28 0 8 0 C7.67 0.99 7.34 1.98 7 3 C4.33333333 3 1.66666667 3 -1 3 C-0.67 2.01 -0.34 1.02 0 0 Z " fill="#F7F9FA" transform="translate(445,531)"/>
<path d="M0 0 C0.99 0.33 1.98 0.66 3 1 C1.26440562 4.057952 -0.38472619 6.63379989 -3 9 C-2.44271087 5.65626525 -1.64826111 2.96687001 0 0 Z " fill="#EAFAFD" transform="translate(531,502)"/>
<path d="M0 0 C3.26954202 0.56371414 4.82575883 1.49962266 7 4 C6.67 4.99 6.34 5.98 6 7 C5.01 6.34 4.02 5.68 3 5 C3 4.34 3 3.68 3 3 C2.34 3 1.68 3 1 3 C0.67 2.01 0.34 1.02 0 0 Z " fill="#F5F5F8" transform="translate(431,482)"/>
<path d="M0 0 C3.08089673 2.77280706 4.68775452 5.06326356 6 9 C3.5625 7.875 3.5625 7.875 1 6 C0.1875 2.8125 0.1875 2.8125 0 0 Z " fill="#A4ABAD" transform="translate(531,268)"/>
<path d="M0 0 C2.475 0.495 2.475 0.495 5 1 C5 4.10551666 4.4606285 5.35261084 3 8 C0 2.25 0 2.25 0 0 Z " fill="#A4A7A7" transform="translate(502,786)"/>
<path d="M0 0 C1.32 0.33 2.64 0.66 4 1 C1.6875 3.5 1.6875 3.5 -1 6 C-1.99 6 -2.98 6 -4 6 C-3.67 5.01 -3.34 4.02 -3 3 C-1.68 3 -0.36 3 1 3 C0.67 2.01 0.34 1.02 0 0 Z " fill="#969C9C" transform="translate(612,674)"/>
<path d="M0 0 C-0.33 0.99 -0.66 1.98 -1 3 C-3.31 3 -5.62 3 -8 3 C-7.34 2.67 -6.68 2.34 -6 2 C-6 1.34 -6 0.68 -6 0 C-3.50907189 -1.24546405 -2.58919267 -0.7767578 0 0 Z " fill="#A9B0B0" transform="translate(526,669)"/>
<path d="M0 0 C0.33 0.99 0.66 1.98 1 3 C1.66 3 2.32 3 3 3 C3 6.3 3 9.6 3 13 C2.67 13 2.34 13 2 13 C-0.28571429 4.57142857 -0.28571429 4.57142857 0 0 Z " fill="#6E7576" transform="translate(334,565)"/>
<path d="M0 0 C1.98 1.65 3.96 3.3 6 5 C5.34 5.66 4.68 6.32 4 7 C3.566875 6.525625 3.13375 6.05125 2.6875 5.5625 C0.97690387 3.76313043 0.97690387 3.76313043 -2 3 C-2 2.34 -2 1.68 -2 1 C-1.34 0.67 -0.68 0.34 0 0 Z " fill="#C2C7C9" transform="translate(417,502)"/>
<path d="M0 0 C0.66 0.33 1.32 0.66 2 1 C1.34 3.64 0.68 6.28 0 9 C-0.66 9 -1.32 9 -2 9 C-2.25 3.375 -2.25 3.375 0 0 Z " fill="#B3B7BA" transform="translate(553,690)"/>
<path d="M0 0 C2.00720923 0.28674418 4.0085944 0.61866701 6 1 C6 1.66 6 2.32 6 3 C5.01 3.33 4.02 3.66 3 4 C2.34 3.67 1.68 3.34 1 3 C0.67 3.99 0.34 4.98 0 6 C-0.38218767 4.34385343 -0.71395102 2.67542976 -1 1 C-0.67 0.67 -0.34 0.34 0 0 Z " fill="#F7F7F7" transform="translate(462,542)"/>
<path d="M0 0 C1.65 0 3.3 0 5 0 C3.92598892 2.91517292 3.22189824 4.77810176 1 7 C0.67 4.69 0.34 2.38 0 0 Z " fill="#AAABAE" transform="translate(596,526)"/>
<path d="M0 0 C0 3.17370278 -0.30933342 4.3794668 -2 7 C-4.125 8.25 -4.125 8.25 -6 9 C-4.68775452 5.06326356 -3.08089673 2.77280706 0 0 Z " fill="#88AEB2" transform="translate(532,498)"/>
<path d="M0 0 C0.66 0 1.32 0 2 0 C3.80411967 2.75924185 4.0127245 3.88972103 3.625 7.25 C3.41875 8.1575 3.2125 9.065 3 10 C0.70366176 6.55549263 0.45983515 4.06187717 0 0 Z " fill="#95979C" transform="translate(413,449)"/>
<path d="M0 0 C1.32 0 2.64 0 4 0 C4.66 1.65 5.32 3.3 6 5 C5.01 5.33 4.02 5.66 3 6 C2.34 5.01 1.68 4.02 1 3 C0.34 2.34 -0.32 1.68 -1 1 C-0.67 0.67 -0.34 0.34 0 0 Z " fill="#CFD4D6" transform="translate(426,440)"/>
<path d="M0 0 C3 2 3 2 5 4 C5.125 6.625 5.125 6.625 5 9 C1.9083091 6.47043472 1.09068668 3.77545388 0 0 Z " fill="#A9ADB0" transform="translate(448,425)"/>
<path d="M0 0 C1 2 1 2 0.875 4.5 C0 7 0 7 -2.5625 8.3125 C-3.7690625 8.6528125 -3.7690625 8.6528125 -5 9 C-3.7508258 5.54074837 -2.32472205 2.85306797 0 0 Z " fill="#6A9BA0" transform="translate(478,275)"/>
<path d="M0 0 C0.75 1.75 0.75 1.75 1 4 C-0.9375 6.25 -0.9375 6.25 -3 8 C-3.66 7.34 -4.32 6.68 -5 6 C-3.35 4.02 -1.7 2.04 0 0 Z " fill="#A3B7BB" transform="translate(503,241)"/>
<path d="M0 0 C1.32 0.66 2.64 1.32 4 2 C3.01 2 2.02 2 1 2 C1 2.66 1 3.32 1 4 C-0.98 4.66 -2.96 5.32 -5 6 C-4.34 4.68 -3.68 3.36 -3 2 C-2.01 2.33 -1.02 2.66 0 3 C0 2.01 0 1.02 0 0 Z " fill="#9EA3A4" transform="translate(589,691)"/>
<path d="M0 0 C0.66 0.33 1.32 0.66 2 1 C0.35 2.98 -1.3 4.96 -3 7 C-3.99 6.34 -4.98 5.68 -6 5 C-4.02 3.35 -2.04 1.7 0 0 Z " fill="#929799" transform="translate(599,662)"/>
<path d="M0 0 C2.31 1.65 4.62 3.3 7 5 C5.68 5.33 4.36 5.66 3 6 C2.01 5.34 1.02 4.68 0 4 C0 2.68 0 1.36 0 0 Z " fill="#A7A9AB" transform="translate(409,656)"/>
<path d="M0 0 C1.485 0.99 1.485 0.99 3 2 C2.6875 3.9375 2.6875 3.9375 2 6 C1.01 6.33 0.02 6.66 -1 7 C-0.67 4.69 -0.34 2.38 0 0 Z " fill="#F0F4F4" transform="translate(521,639)"/>
<path d="M0 0 C2.56616632 3.84924948 2.55097676 6.4349304 3 11 C2.67 10.01 2.34 9.02 2 8 C1.34 8 0.68 8 0 8 C-1.09658936 4.71023192 -0.79953138 3.28696233 0 0 Z " fill="#898C93" transform="translate(496,602)"/>
<path d="M0 0 C1.61949011 2.57213134 2.04408751 3.67669159 1.625 6.75 C1.41875 7.4925 1.2125 8.235 1 9 C0.34 8.67 -0.32 8.34 -1 8 C-0.67 5.36 -0.34 2.72 0 0 Z " fill="#B4BCBF" transform="translate(496,580)"/>
<path d="M0 0 C1.32 1.32 2.64 2.64 4 4 C3.67 4.66 3.34 5.32 3 6 C0.9375 6.625 0.9375 6.625 -1 7 C-0.67 4.69 -0.34 2.38 0 0 Z " fill="#ACB0B5" transform="translate(405,486)"/>
<path d="M0 0 C0.99 0 1.98 0 3 0 C2.34 1.65 1.68 3.3 1 5 C0.01 5 -0.98 5 -2 5 C-2.33 4.34 -2.66 3.68 -3 3 C-2.01 3 -1.02 3 0 3 C0 2.01 0 1.02 0 0 Z " fill="#979B9D" transform="translate(509,791)"/>
<path d="M0 0 C0.66 0.33 1.32 0.66 2 1 C1.34 2.32 0.68 3.64 0 5 C-1.32 4.67 -2.64 4.34 -4 4 C-3.67 3.01 -3.34 2.02 -3 1 C-2.01 0.67 -1.02 0.34 0 0 Z " fill="#F6F7F9" transform="translate(461,690)"/>
<path d="M0 0 C0.66 0.33 1.32 0.66 2 1 C2 1.66 2 2.32 2 3 C1.34 3 0.68 3 0 3 C-0.33 3.99 -0.66 4.98 -1 6 C-1.99 5.67 -2.98 5.34 -4 5 C-4 4.34 -4 3.68 -4 3 C-2 1.375 -2 1.375 0 0 Z " fill="#C9CDCE" transform="translate(632,656)"/>
<path d="M0 0 C2.875 0.1875 2.875 0.1875 6 1 C7.375 3.5625 7.375 3.5625 8 6 C4.08597051 4.73058503 2.20927127 3.48832306 0 0 Z " fill="#878789" transform="translate(449,617)"/>
<path d="M0 0 C0.99 0.33 1.98 0.66 3 1 C3.6875 3.0625 3.6875 3.0625 4 5 C3.01 5.33 2.02 5.66 1 6 C1 5.34 1 4.68 1 4 C0.34 4 -0.32 4 -1 4 C-0.67 2.68 -0.34 1.36 0 0 Z " fill="#F8F9FC" transform="translate(372,614)"/>
<path d="M0 0 C0.66 0.33 1.32 0.66 2 1 C-1.465 3.97 -1.465 3.97 -5 7 C-5.66 6.34 -6.32 5.68 -7 5 C-4.69 3.35 -2.38 1.7 0 0 Z " fill="#9A9FA2" transform="translate(551,598)"/>
<path d="M0 0 C2.475 0.495 2.475 0.495 5 1 C4.34 2.98 3.68 4.96 3 7 C0.64046906 4.64046906 0.50858587 3.22104383 0 0 Z " fill="#A5A8AD" transform="translate(410,566)"/>
<path d="M0 0 C3.65316671 1.24976756 4.78065836 1.67098753 7 5 C3.47967572 5 2.5614657 4.29648649 0 2 C0 1.34 0 0.68 0 0 Z " fill="#C4CBCD" transform="translate(455,533)"/>
<path d="M0 0 C3.375 -0.125 3.375 -0.125 7 0 C7.66 0.66 8.32 1.32 9 2 C8.01 2.66 7.02 3.32 6 4 C3.00667261 3.0022242 2.05233685 2.2477975 0 0 Z " fill="#9A9FA3" transform="translate(670,492)"/>
<path d="M0 0 C2.31 0 4.62 0 7 0 C7 0.33 7 0.66 7 1 C4.69 1 2.38 1 0 1 C0 0.67 0 0.34 0 0 Z " fill="#000707" transform="translate(519,756)"/>
</svg>
