<svg version="1.0" xmlns="http://www.w3.org/2000/svg"
     width="500.000000pt" height="500.000000pt" viewBox="0 0 500.000000 500.000000"
     preserveAspectRatio="xMidYMid meet">

    <g transform="translate(0.000000,500.000000) scale(0.100000,-0.100000)"
       fill="#3f51b5" stroke="none">
        <path d="M2481 4355 c-13 -62 -60 -156 -102 -201 -29 -31 -101 -64 -171 -78
l-62 -13 59 -11 c127 -25 202 -81 251 -186 13 -28 27 -73 30 -99 4 -26 9 -46
11 -43 2 2 11 32 19 65 17 76 35 111 81 162 45 50 97 77 188 100 39 10 58 18
44 18 -15 1 -56 10 -91 21 -114 35 -191 125 -222 259 -8 35 -16 65 -19 67 -2
2 -9 -25 -16 -61z"/>
        <path d="M1856 4085 c-8 -41 -58 -94 -97 -102 -31 -6 -30 -23 1 -23 28 0 77
-46 92 -86 l12 -34 21 42 c15 33 32 49 68 67 l48 24 -38 17 c-47 21 -67 44
-83 93 -6 20 -13 37 -15 37 -1 0 -6 -16 -9 -35z"/>
        <path d="M3110 4100 c0 -51 -65 -120 -113 -120 -10 0 -15 -4 -12 -10 3 -5 15
-10 25 -10 28 0 85 -54 97 -92 9 -29 11 -30 17 -13 18 52 35 72 79 94 l48 24
-40 18 c-41 18 -81 68 -81 101 0 9 -4 20 -10 23 -5 3 -10 -3 -10 -15z"/>
        <path d="M3630 3929 c-1 -120 -110 -246 -229 -265 -45 -7 -46 -24 -2 -24 39 0
125 -46 160 -85 31 -36 70 -129 72 -173 0 -16 8 0 18 40 30 117 97 184 214
215 59 15 71 23 34 23 -45 0 -131 38 -164 72 -37 38 -83 131 -83 168 0 14 -5
32 -10 40 -8 12 -10 9 -10 -11z"/>
        <path d="M1356 3915 c-39 -155 -108 -232 -225 -251 -42 -7 -47 -24 -8 -24 35
0 119 -45 154 -81 37 -40 72 -113 73 -151 0 -16 5 -28 10 -28 6 0 10 8 10 18
0 45 36 118 79 162 36 37 59 52 106 65 92 27 93 27 49 36 -127 24 -208 107
-233 242 -8 42 -8 42 -15 12z"/>
        <path d="M1930 3618 c-18 -13 -43 -36 -54 -51 -21 -28 -21 -38 -24 -613 l-2
-584 242 0 243 0 0 49 c0 27 4 53 8 58 14 13 57 -45 57 -78 0 -24 4 -29 25
-29 19 0 28 9 44 46 43 97 205 285 232 268 17 -10 9 -26 -39 -80 -27 -30 -70
-95 -96 -144 l-47 -90 25 0 c18 0 24 4 20 14 -4 10 7 18 36 27 35 11 49 10 95
-5 30 -9 57 -21 60 -26 4 -6 93 -10 216 -10 l209 0 0 409 c0 317 -3 412 -12
418 -7 4 -83 8 -169 8 -117 0 -160 4 -173 14 -14 12 -16 40 -16 217 l0 204
-424 0 c-422 0 -423 0 -456 -22z m721 -174 c9 -11 10 -20 2 -32 -9 -15 -41
-17 -303 -17 -262 0 -294 2 -303 17 -8 12 -7 21 2 32 12 14 51 16 301 16 250
0 289 -2 301 -16z m-7 -140 c19 -19 20 -36 4 -52 -17 -17 -579 -17 -596 0 -16
16 -15 33 4 52 13 14 54 16 294 16 240 0 281 -2 294 -16z m4 -146 c18 -18 14
-46 -7 -58 -12 -6 -124 -10 -295 -10 -236 0 -277 2 -290 16 -19 18 -19 20 -6
45 10 18 24 19 298 19 211 0 291 -3 300 -12z m-400 -150 c17 -17 15 -55 -4
-62 -9 -3 -53 -6 -99 -6 -73 0 -86 3 -95 19 -13 25 -13 27 6 45 19 20 173 23
192 4z m571 -66 c-4 -68 -8 -84 -33 -116 -15 -21 -46 -51 -69 -67 -49 -35 -57
-28 -57 52 0 71 31 132 89 177 67 50 74 46 70 -46z m-358 -131 c23 -36 29 -56
29 -100 0 -69 -10 -131 -21 -131 -20 0 -74 59 -95 105 -26 55 -31 125 -13 189
l11 38 30 -28 c17 -16 44 -49 59 -73z m141 32 c22 -49 21 -105 -3 -157 -16
-34 -31 -33 -51 2 -29 49 -33 104 -10 156 12 25 26 46 32 46 6 0 20 -21 32
-47z m424 12 c9 -22 -51 -91 -99 -114 -30 -14 -63 -21 -105 -21 l-62 0 19 38
c38 73 101 111 189 112 37 0 54 -4 58 -15z m-766 -37 c45 -31 73 -89 78 -161
5 -58 4 -59 -19 -52 -82 26 -142 143 -113 219 8 21 15 20 54 -6z m-104 -163
c49 -20 85 -51 111 -93 33 -53 30 -62 -20 -62 -83 0 -141 25 -196 86 -28 31
-51 59 -51 64 0 21 109 25 156 5z m732 1 c15 -8 35 -23 45 -33 17 -19 16 -20
-22 -31 -21 -7 -55 -12 -74 -12 -41 0 -117 27 -117 41 0 18 66 49 103 49 21 0
50 -6 65 -14z m-54 -153 c26 -20 43 -40 38 -45 -14 -14 -102 -26 -136 -18 -39
9 -82 36 -90 57 -4 9 -5 17 -4 18 22 16 52 24 94 25 43 0 57 -5 98 -37z"/>
        <path d="M2910 3427 l0 -127 132 0 c72 0 129 1 127 3 -2 2 -61 59 -131 127
l-128 123 0 -126z"/>
        <path d="M1300 3201 c-5 -11 -10 -24 -10 -30 0 -14 37 -51 50 -51 15 0 50 38
50 54 0 41 -71 62 -90 27z"/>
        <path d="M3614 3213 c-29 -21 -20 -77 15 -86 12 -3 30 2 43 13 19 15 21 22 13
46 -10 29 -47 43 -71 27z"/>
        <path d="M3755 3005 c-23 -100 -60 -145 -137 -166 l-43 -11 48 -13 c26 -6 56
-20 68 -31 25 -23 59 -86 59 -111 0 -10 4 -25 9 -32 8 -12 11 -8 16 15 20 90
66 148 130 162 32 8 36 11 20 16 -77 27 -128 76 -141 135 -3 14 -9 35 -14 46
-7 18 -8 17 -15 -10z"/>
        <path d="M989 2841 c-20 -20 -29 -39 -29 -61 0 -22 9 -41 29 -61 l29 -29 170
0 c126 0 172 -3 180 -13 10 -11 69 -248 171 -682 142 -603 141 -601 169 -627
15 -14 37 -31 49 -37 15 -8 229 -11 741 -11 l719 0 40 29 c22 16 44 42 50 57
6 16 37 135 68 264 32 129 82 333 111 452 65 261 67 287 20 334 l-34 34 -106
0 -106 0 0 -60 0 -60 34 0 c43 0 58 -17 47 -56 l-7 -29 -839 0 -839 0 -7 29
c-12 42 4 56 62 56 l49 0 0 60 0 59 -77 3 -78 3 -22 90 c-12 50 -22 104 -22
120 -2 55 -36 111 -83 139 -44 26 -47 26 -252 26 l-208 0 -29 -29z m2307 -718
c-5 -17 -22 -92 -101 -443 -21 -91 -41 -173 -46 -182 -12 -22 -67 -24 -75 -3
-4 8 12 95 35 193 23 98 41 183 41 190 0 8 -22 12 -73 12 l-73 0 -27 -196
c-15 -108 -29 -200 -33 -205 -7 -12 -101 -12 -109 0 -5 8 20 233 41 364 l6 37
-79 0 -79 0 -21 -194 c-12 -107 -24 -200 -28 -205 -11 -18 -95 -14 -102 6 -3
9 1 95 11 192 9 97 16 182 16 189 0 9 -28 12 -105 12 l-106 0 8 -127 c4 -71 8
-162 8 -203 l0 -75 -44 -3 c-24 -2 -47 0 -52 5 -4 4 -15 78 -23 163 -9 85 -18
174 -22 198 l-5 42 -80 0 c-43 0 -79 -3 -79 -6 0 -4 11 -92 25 -196 14 -104
23 -193 20 -199 -9 -14 -91 -11 -103 4 -6 7 -23 94 -38 192 -14 99 -28 186
-30 193 -2 8 -26 12 -74 12 -63 0 -71 -2 -66 -17 3 -10 19 -79 36 -153 17 -74
34 -153 40 -175 6 -26 5 -43 -2 -52 -15 -19 -56 -16 -67 5 -5 9 -26 92 -46
182 -44 200 -94 419 -101 443 -5 16 38 17 801 17 763 0 806 -1 801 -17z"/>
        <path d="M2491 2052 l-703 -2 6 -23 c3 -12 6 -28 6 -35 0 -10 142 -12 692 -10
l692 3 8 34 c5 18 8 34 6 35 -2 0 -320 0 -707 -2z"/>
        <path d="M1196 2269 c-20 -72 -54 -109 -118 -128 l-43 -14 46 -13 c70 -21 127
-98 129 -174 1 -25 16 9 24 53 9 49 58 104 107 118 48 15 50 25 7 33 -59 12
-118 81 -118 138 -1 53 -17 47 -34 -13z"/>
        <path d="M3754 2285 c-9 -65 -40 -106 -104 -137 -30 -15 -47 -28 -37 -28 61
-1 125 -69 142 -148 8 -40 17 -33 34 26 15 55 70 109 118 118 l37 7 -50 22
c-61 27 -89 61 -110 132 -8 29 -17 53 -19 53 -2 0 -7 -20 -11 -45z"/>
        <path d="M1930 1195 c-59 -19 -118 -69 -141 -119 -25 -55 -25 -167 0 -221 22
-50 86 -109 136 -125 20 -7 65 -10 100 -8 78 5 130 37 177 111 29 45 33 60 35
126 l2 76 253 0 252 0 -3 -50 c-3 -68 29 -153 79 -204 105 -108 311 -69 379
72 27 56 28 155 2 213 -24 52 -91 109 -154 130 -61 20 -123 13 -185 -21 l-45
-25 -332 0 -332 0 -45 25 c-57 32 -120 39 -178 20z"/>
    </g>
</svg>
